<?xml version="1.0" encoding="UTF-8" standalone="no"?>
<svg
   viewBox="0 0 48.697 46.475"
   xmlns="http://www.w3.org/2000/svg"
   xmlns:svg="http://www.w3.org/2000/svg">
  <g
     id="theme-icon-light"
     transform="translate(-4.4213,-7.3227)"
     style="stroke-width:5.29194;stroke-linecap:round;stroke-linejoin:round;paint-order:stroke fill markers">
    <path
       d="m 7.1054,33.443 c 1.0353,0.08 2.0729,0.1 3.1116,0.103 1.735,-0.03 3.47,-0.1 5.203,-0.185 0.696,-0.04 1.392,-0.08 2.087,-0.122 3.868,-0.09 3.731,-5.567 -0.137,-5.471 v 0 c -0.705,0 -1.411,0 -2.116,0 -1.768,0 -3.537,0.06 -5.2999,0.193 -0.7427,0.07 -0.8152,0.07 -1.5221,0.164 -0.3932,0.05 -0.9192,0.08 -1.2989,0.225 -0.016,0 -0.018,0.03 -0.028,0.04 -3.5784,0 -3.5784,5.062 0,5.062 z" />
    <path
       d="m 35.672,21.373 c -0.556,-0.577 -1.251,-0.976 -1.955,-1.344 -1.066,-0.52 -2.217,-0.821 -3.374,-1.06 -1.383,-0.278 -2.793,-0.214 -4.185,-0.04 -0.861,0.118 -1.712,0.308 -2.526,0.615 -0.555,0.209 -0.707,0.298 -1.238,0.558 -1.191,0.621 -2.208,1.493 -3.164,2.425 -1.013,0.988 -1.791,2.165 -2.48,3.392 -0.559,1.083 -1.022,2.226 -1.255,3.427 -0.05,0.256 -0.08,0.516 -0.117,0.772 -0.15,1.519 0.101,3.038 0.661,4.451 0.109,0.275 0.241,0.539 0.362,0.807 0.521,1.047 1.202,2.002 2.027,2.831 0.554,0.555 0.738,0.677 1.341,1.158 1.302,1.003 2.792,1.678 4.329,2.228 0.993,0.326 2.012,0.577 3.055,0.67 0.743,0.07 0.967,0.04 1.709,0.03 1.466,-0.108 2.908,-0.46 4.257,-1.034 0.275,-0.117 0.54,-0.252 0.807,-0.376 0.973,-0.498 1.902,-1.085 2.754,-1.77 0.527,-0.426 0.659,-0.572 1.148,-1.043 0.863,-0.883 1.591,-1.891 2.149,-2.992 0.106,-0.212 0.201,-0.431 0.304,-0.646 0.524,-1.196 0.826,-2.471 1.029,-3.757 0.138,-1.005 0.162,-2.032 0,-3.037 -0.03,-0.201 -0.07,-0.4 -0.111,-0.598 -0.241,-1.057 -0.69,-2.058 -1.315,-2.944 -0.129,-0.183 -0.272,-0.356 -0.41,-0.534 -0.69,-0.841 -1.532,-1.528 -2.4,-2.174 -0.344,-0.251 -0.703,-0.478 -1.063,-0.703 -3.109,-2.026 -5.974,2.373 -2.866,4.399 v 0 c 0.244,0.167 0.485,0.336 0.72,0.514 0.5,0.395 1,0.799 1.429,1.273 0.301,0.341 0.539,0.733 0.685,1.166 0.122,0.596 0.116,1.202 0,1.802 -0.124,0.794 -0.331,1.569 -0.622,2.318 -0.331,0.73 -0.756,1.408 -1.323,1.979 -0.738,0.712 -1.585,1.286 -2.497,1.752 -0.921,0.452 -1.881,0.812 -2.909,0.92 -0.426,0.03 -0.871,0.07 -1.297,0 -0.485,-0.06 -0.953,-0.227 -1.417,-0.373 -0.983,-0.349 -1.934,-0.783 -2.78,-1.405 -0.225,-0.166 -0.521,-0.378 -0.731,-0.574 -0.426,-0.391 -0.771,-0.86 -1.044,-1.37 -0.342,-0.701 -0.574,-1.408 -0.639,-2.191 0.106,-0.831 0.355,-1.598 0.756,-2.334 0.432,-0.788 0.915,-1.563 1.545,-2.209 0.53,-0.551 1.105,-1.066 1.767,-1.452 0.604,-0.325 1.244,-0.562 1.936,-0.605 0.84,-0.08 1.686,-0.134 2.527,-0.05 0.748,0.147 1.481,0.342 2.209,0.567 0.222,0.08 0.421,0.176 0.632,0.271 0.05,0.02 0.17,0.07 0.143,0.03 -0.04,-0.06 -0.1,-0.112 -0.148,-0.168 2.519,2.518 6.08,-1.043 3.561,-3.562 z" />
    <path
       d="m 25.68,43.171 c -0.149,0.723 -0.159,1.471 -0.194,2.207 -0.08,1.442 -0.07,2.887 -0.05,4.331 0,0.222 0,0.445 0,0.667 -0.03,3.892 5.478,3.934 5.507,0.04 v 0 c 0,-0.236 0,-0.471 0.03,-0.707 0.03,-1.444 0.03,-2.889 -0.05,-4.331 -0.04,-0.736 -0.05,-1.484 -0.194,-2.207 0,-3.563 -5.036,-3.563 -5.036,0 z" />
    <path
       d="m 31.46,20.82 c 0.138,-1.048 0.06,-2.104 -0.03,-3.153 -0.148,-1.835 -0.293,-3.669 -0.51,-5.496 -0.148,-1.131 -0.07,-0.577 -0.225,-1.66 -0.426,-3.9292 -5.983,-3.3259 -5.556,0.603 v 0 c 0.08,1.075 0.04,0.527 0.13,1.642 0.161,1.834 0.352,3.665 0.614,5.488 0.132,0.984 0.246,1.982 0.529,2.937 0.255,3.563 5.296,3.204 5.04,-0.361 z" />
    <path
       d="m 41.452,32.436 c -0.05,0.03 -0.196,0.03 -0.156,0.05 0.08,0.08 0.209,0.07 0.314,0.1 0.188,0.05 0.376,0.111 0.567,0.156 1.005,0.241 2.032,0.373 3.056,0.513 1.486,0.199 2.984,0.288 4.481,0.378 4.342,0.204 4.631,-5.934 0.289,-6.138 v 0 c -1.439,-0.05 -2.881,-0.09 -4.323,-0.1 -1.411,-0.03 -2.818,-0.03 -4.228,0 -3.562,0 -3.562,5.037 0,5.037 z" />
  </g>
  <g
     id="theme-icon-dark"
     transform="translate(-4.4213,-7.3227)"
     style="stroke-width:5.29189;stroke-linecap:round;stroke-linejoin:round;paint-order:stroke fill markers">
    <path
       d="m 31.459,7.3752 c -1.251,0.021 -2.461,0.3877 -3.647,0.7535 -1.795,0.5681 -3.496,1.3736 -5.134,2.2933 -1.682,0.991 -3.112,2.343 -4.296,3.892 -0.251,0.328 -0.48,0.671 -0.718,1.008 -1.177,1.719 -2.17,3.558 -2.924,5.503 -0.157,0.406 -0.295,0.821 -0.442,1.233 -0.807,2.362 -1.279,4.813 -1.632,7.281 -0.289,2.049 -0.273,4.133 0.03,6.182 0.06,0.401 0.138,0.793 0.208,1.192 0.428,2.284 1.265,4.386 2.314,6.449 0.871,1.567 1.896,3.064 3.142,4.359 0.297,0.306 0.611,0.592 0.915,0.888 1.359,1.184 2.884,2.156 4.514,2.922 1.101,0.516 1.482,0.626 2.621,1.044 2.693,0.907 5.414,1.255 8.238,1.399 2.407,0.09 4.812,-0.08 7.199,-0.403 1.498,-0.218 2.938,-0.625 4.378,-1.099 3.62,-1.111 2.05,-6.228 -1.57,-5.12 v 0 c -1.16,0.325 -2.33,0.601 -3.527,0.739 -2.056,0.25 -4.119,0.322 -6.181,0.253 -0.861,-0.05 -1.354,-0.06 -2.21,-0.167 C 31.242,47.802 29.768,47.464 28.321,47.049 27.51,46.764 27.076,46.628 26.294,46.284 25.13,45.771 24.03,45.118 23.025,44.338 22.829,44.172 22.623,44.02 22.439,43.843 21.49,42.93 20.768,41.796 20.121,40.659 19.33,39.113 18.707,37.489 18.388,35.775 18.081,33.917 17.861,32.03 18.181,30.158 c 0.327,-2.106 0.752,-4.203 1.421,-6.227 0.205,-0.579 0.483,-1.405 0.721,-1.975 0.515,-1.22 1.178,-2.364 1.908,-3.463 0.859,-1.279 1.777,-2.496 3.103,-3.326 1.343,-0.747 2.74,-1.388 4.189,-1.906 0.912,-0.331 1.833,-0.648 2.779,-0.881 3.539,-0.594 2.703,-5.601 -0.838,-5.0087 z" />
    <path
       d="m 32.854,8.6585 c -0.653,0.3441 -1.178,0.8828 -1.69,1.4035 -1.035,1.079 -1.797,2.363 -2.492,3.677 -0.797,1.556 -1.229,3.25 -1.57,4.953 -0.345,1.717 -0.445,3.465 -0.462,5.213 0,1.593 0.133,3.184 0.36,4.76 0.22,1.415 0.603,2.793 1.013,4.162 0.505,1.703 1.292,3.294 2.154,4.837 1.041,1.843 2.35,3.501 3.722,5.103 1.346,1.556 2.883,2.928 4.489,4.206 1.31,1.025 2.743,1.882 4.202,2.661 0.57,0.286 1.13,0.559 1.7,0.835 3.33,1.722 5.76,-2.984 2.43,-4.704 v 0 c -0.52,-0.284 -1.05,-0.57 -1.57,-0.851 -1.17,-0.643 -2.32,-1.316 -3.334,-2.183 -1.324,-1.097 -2.588,-2.272 -3.737,-3.561 -1.152,-1.334 -2.255,-2.718 -3.162,-4.237 -0.694,-1.155 -1.359,-2.349 -1.789,-3.632 -0.328,-1.106 -0.644,-2.22 -0.803,-3.368 -0.171,-1.313 -0.291,-2.631 -0.269,-3.958 0.03,-1.421 0.09,-2.844 0.358,-4.242 0.231,-1.204 0.49,-2.414 1.022,-3.528 0.461,-0.913 0.979,-1.799 1.602,-2.612 0.22,-0.273 0.423,-0.566 0.685,-0.798 2.925,-2.021 0.07,-6.1579 -2.859,-4.1365 z" />
  </g>
</svg>
