<?xml version="1.0" encoding="UTF-8" standalone="no"?>
<!-- Created with Inkscape (http://www.inkscape.org/) -->

<svg
   width="210mm"
   height="297mm"
   viewBox="0 0 210 297"
   version="1.1"
   id="svg1"
   inkscape:version="1.3.2 (091e20e, 2023-11-25, custom)"
   sodipodi:docname="proto.svg"
   xmlns:inkscape="http://www.inkscape.org/namespaces/inkscape"
   xmlns:sodipodi="http://sodipodi.sourceforge.net/DTD/sodipodi-0.dtd"
   xmlns:xlink="http://www.w3.org/1999/xlink"
   xmlns="http://www.w3.org/2000/svg"
   xmlns:svg="http://www.w3.org/2000/svg">
  <sodipodi:namedview
     id="namedview1"
     pagecolor="#ffffff"
     bordercolor="#000000"
     borderopacity="0.25"
     inkscape:showpageshadow="2"
     inkscape:pageopacity="0.0"
     inkscape:pagecheckerboard="0"
     inkscape:deskcolor="#d1d1d1"
     inkscape:document-units="mm"
     inkscape:zoom="3.0039562"
     inkscape:cx="213.55172"
     inkscape:cy="255.8293"
     inkscape:window-width="1920"
     inkscape:window-height="1051"
     inkscape:window-x="-9"
     inkscape:window-y="-9"
     inkscape:window-maximized="1"
     inkscape:current-layer="g5"
     showgrid="false" />
    <g
       inkscape:label="base"
       inkscape:groupmode="layer"
       id="proto-base"
       style="display:inline"
       sodipodi:insensitive="true">
      <path
         style="stroke-width:5.29167;stroke-linecap:round;stroke-linejoin:round;-inkscape-stroke:none;paint-order:stroke fill markers"
         id="path1"
         d="m 34.508537,65.862405 c -0.328991,0.313936 -0.632428,0.655005 -0.937308,0.992296 -0.583393,0.653023 -1.15361,1.318009 -1.71179,1.992691 -0.621724,0.750493 -1.204897,1.531368 -1.773907,2.322192 -0.544259,0.740884 -0.997919,1.537684 -1.396003,2.364597 -0.390498,0.830091 -0.642464,1.711039 -0.836591,2.604572 -0.21589,0.963125 -0.248722,1.94583 -0.231881,2.928218 0.02992,0.969158 0.154773,1.930966 0.31061,2.886797 0.141899,0.827233 0.342879,1.64144 0.594884,2.441532 0.204716,0.636612 0.461508,1.253467 0.76127,1.850689 0.313775,0.621414 0.767008,1.148509 1.251498,1.641497 0.660193,0.654282 1.453999,1.135454 2.255533,1.593445 1.103865,0.606247 2.268775,1.084696 3.457903,1.49366 1.127532,0.365077 2.289839,0.622284 3.469595,0.742132 0.252338,0.02564 0.505748,0.0393 0.758624,0.05895 1.638691,0.09874 3.265516,-0.109815 4.873926,-0.400698 1.781466,-0.321758 3.485444,-0.935228 5.16259,-1.599899 1.757894,-0.709237 3.444242,-1.555189 5.08931,-2.493661 1.601608,-0.945229 3.13114,-2.005314 4.651468,-3.074461 1.126223,-0.806301 2.25366,-1.611087 3.37194,-2.428401 0.610346,-0.452501 0.311544,-0.230703 0.896435,-0.66535 0.784167,-0.578117 -0.03341,-1.687095 -0.817581,-1.108977 v 0 c -0.585875,0.4285 -0.287798,0.210314 -0.89421,0.654584 -1.114054,0.808162 -2.239089,1.601049 -3.363015,2.395387 -1.490819,1.037412 -2.988607,2.067798 -4.548699,2.999443 -0.689049,0.396822 -0.854538,0.503243 -1.555437,0.863629 -1.094505,0.562769 -2.220947,1.062927 -3.354629,1.540611 -1.587976,0.635225 -3.199473,1.230119 -4.889042,1.534882 -1.490988,0.271637 -2.998226,0.474927 -4.51822,0.390832 -0.230095,-0.01672 -0.46068,-0.02768 -0.690285,-0.05017 C 38.810069,90.227141 37.739843,89.994009 36.701919,89.661205 35.592106,89.283973 34.5066,88.838491 33.473294,88.28189 32.777151,87.892169 32.080524,87.492228 31.504648,86.931346 31.11652,86.543252 30.749165,86.128748 30.497435,85.63643 30.228891,85.106051 30.008107,84.554252 29.826129,83.988166 29.596082,83.249428 29.41431,82.49786 29.281849,81.735199 c -0.14333,-0.892241 -0.255254,-1.789785 -0.286705,-2.69384 -0.01778,-0.87726 0.0011,-1.754825 0.195591,-2.615263 0.167333,-0.789278 0.389972,-1.566098 0.732528,-2.299359 0.361511,-0.754618 0.774536,-1.481505 1.273161,-2.155377 0.554101,-0.765279 1.121344,-1.521212 1.722245,-2.250631 0.544631,-0.662898 1.101542,-1.315757 1.666467,-1.961438 0.261414,-0.297103 0.527953,-0.589598 0.788996,-0.887034 0.714081,-0.612069 -0.151517,-1.621931 -0.865595,-1.009862 z" />
      <path
         style="stroke-width:5.29167;stroke-linecap:round;stroke-linejoin:round;-inkscape-stroke:none;paint-order:stroke fill markers"
         id="path2"
         d="m 77.466343,51.726468 c -0.35997,0.133209 -0.69524,0.325781 -1.02863,0.513871 -0.61318,0.342098 -1.18756,0.745424 -1.74243,1.174183 -0.59044,0.464106 -1.0672,0.999202 -1.51173,1.600423 -0.354,0.495599 -0.62297,1.046541 -0.80598,1.627087 -0.0382,0.121144 -0.0692,0.24444 -0.10376,0.366662 -0.1536,0.628441 -0.22009,1.275757 -0.19548,1.92229 0.005,0.129609 0.017,0.258845 0.0255,0.388268 0.0554,0.73718 0.25585,1.445464 0.51884,2.132431 0.24953,0.607822 0.62374,1.15134 1.08099,1.621465 0.0991,0.101909 0.205,0.197016 0.3075,0.295526 0.48122,0.42586 1.01998,0.781336 1.5892,1.078113 0.38894,0.202785 0.5833,0.279747 0.98681,0.456658 1.07716,0.453448 2.20529,0.761802 3.34206,1.022408 0.77312,0.16673 1.55531,0.292407 2.34308,0.364599 0.55072,0.05047 0.71331,0.05005 1.26554,0.07249 1.22643,0.04402 2.45223,-0.02909 3.67328,-0.137726 0.79388,-0.0809 1.5866,-0.180306 2.36892,-0.34018 0.49373,-0.100896 0.63036,-0.142894 1.11526,-0.268449 0.81078,-0.233884 1.61258,-0.511667 2.37561,-0.87449 0.14142,-0.06725 0.27965,-0.141018 0.41948,-0.211529 0.77202,-0.391187 1.43794,-0.942383 2.05963,-1.537007 0.4435,-0.435049 0.83696,-0.917035 1.18937,-1.427798 0.0424,-0.0664 0.0848,-0.132797 0.12714,-0.199196 0.51878,-0.805913 -0.62095,-1.539584 -1.13973,-0.733672 v 0 c -0.0342,0.0526 -0.0685,0.105212 -0.10268,0.157819 -0.30337,0.432642 -0.64539,0.837592 -1.02342,1.20718 -0.52535,0.499062 -1.08464,0.968232 -1.73573,1.296509 -0.1187,0.06028 -0.23574,0.123944 -0.35609,0.180853 -0.69438,0.328348 -1.42686,0.572455 -2.16335,0.785783 -0.45345,0.11656 -0.55988,0.150114 -1.02186,0.243613 -0.73918,0.149598 -1.48723,0.244028 -2.23724,0.319135 -1.16092,0.103291 -2.3263,0.174852 -3.49238,0.131175 -1.12574,-0.04409 -2.25078,-0.14061 -3.35113,-0.395224 -1.0532,-0.242268 -2.09784,-0.528595 -3.0999,-0.938406 -0.77452,-0.331602 -1.54352,-0.69156 -2.18331,-1.252235 -0.44422,-0.414769 -0.8249,-0.836391 -1.05811,-1.407544 -0.21471,-0.55953 -0.3809,-1.135528 -0.42685,-1.736294 -0.0447,-0.620321 -0.0314,-1.241914 0.12148,-1.848837 0.14934,-0.549494 0.34659,-1.084548 0.68932,-1.546386 0.36317,-0.490823 0.766,-0.948796 1.24691,-1.329166 0.50785,-0.39025 1.0329,-0.757063 1.5875,-1.078574 0.25263,-0.149588 0.50855,-0.295431 0.76697,-0.43393 0.8923,-0.297431 0.47167,-1.559332 -0.42063,-1.261898 z" />
      <path
         style="stroke-width:5.29167;stroke-linecap:round;stroke-linejoin:round;-inkscape-stroke:none;paint-order:stroke fill markers"
         id="path4"
         d="m 84.955856,16.68315 c -0.91855,0.643084 -1.76327,1.38253 -2.60194,2.124485 -1.52324,1.358581 -2.92651,2.846188 -4.18521,4.453171 -0.3218,0.410845 -0.62796,0.833699 -0.94195,1.250548 -1.27176,1.760946 -2.43779,3.596502 -3.51563,5.481948 -0.64452,1.12744 -0.89159,1.612166 -1.49656,2.749249 -1.12384,2.138289 -2.1399,4.330328 -3.10351,6.544671 -0.60297,1.377872 -1.13523,2.784677 -1.62695,4.205575 -0.0671,0.201003 -0.13419,0.402006 -0.20129,0.603009 -0.31009,0.930037 1.00518,1.368578 1.31527,0.438541 v 0 c 0.0649,-0.194878 0.1298,-0.389756 0.1947,-0.584634 0.48739,-1.383326 1.01675,-2.751869 1.61687,-4.090649 0.96803,-2.172227 1.98523,-4.322974 3.10269,-6.422959 1.48803,-2.77187 3.04027,-5.493439 4.89401,-8.042189 0.30011,-0.403935 0.59298,-0.813364 0.90036,-1.211806 1.20033,-1.555952 2.5316,-3.004698 3.98892,-4.323546 0.81019,-0.735711 1.63334,-1.456766 2.49188,-2.135841 0.73509,-0.588071 -0.0966,-1.627645 -0.83166,-1.039573 z" />
      <path
         style="stroke-width:5.29167;stroke-linecap:round;stroke-linejoin:round;-inkscape-stroke:none;paint-order:stroke fill markers"
         id="path5"
         d="m 84.597856,16.938875 c 0.32779,0.510369 0.61096,1.043568 0.87966,1.587016 0.63758,1.38057 1.189,2.806577 1.63844,4.259917 0.11755,0.380125 0.21978,0.764819 0.32967,1.147228 0.77009,2.78989 1.22619,5.650949 1.61895,8.514097 0.27676,2.204001 0.46907,4.423737 0.46805,6.646763 -1.8e-4,0.374219 -0.0149,0.748288 -0.0224,1.122432 -0.0366,1.338323 -0.21252,2.668736 -0.50798,3.973916 -0.17614,0.77809 -0.25042,0.997501 -0.46809,1.756875 -0.43185,1.389306 -0.95881,2.746846 -1.54018,4.079791 -0.250647,1.326305 1.247244,0.666618 1.26632,0.558967 0.61859,-1.385593 1.17913,-2.798232 1.63277,-4.247112 0.23244,-0.802388 0.31296,-1.037854 0.50052,-1.860559 0.31676,-1.389451 0.5048,-2.805642 0.55253,-4.230388 0.009,-0.391665 0.0257,-0.783226 0.028,-1.174996 0.0134,-2.282182 -0.17078,-4.56192 -0.45187,-6.825169 -0.40074,-2.935278 -0.87488,-5.868007 -1.69174,-8.720825 -0.11949,-0.399612 -0.23177,-0.801451 -0.35847,-1.198836 -0.48278,-1.514252 -1.06223,-3.003018 -1.76082,-4.430729 -0.29949,-0.572204 -0.6115,-1.135682 -0.9854,-1.663361 -0.49849,-0.797586 -1.62644,-0.09261 -1.12795,0.704973 z"
         sodipodi:nodetypes="scsccscsccccscsccsccss" />
      <path
         style="stroke-width:5.29167;stroke-linecap:round;stroke-linejoin:round;-inkscape-stroke:none;paint-order:stroke fill markers"
         id="path6"
         d="m 46.472776,13.17765 c 0.600434,0.616649 1.144272,1.28585 1.694344,1.946876 0.235632,0.292498 0.474212,0.582646 0.706898,0.877494 0.536231,0.679486 1.216032,1.55747 1.695722,2.267376 1.031822,1.527023 1.908699,3.14588 2.788647,4.762339 1.144778,2.143529 2.16013,4.358514 2.988123,6.644087 0.479713,1.324187 0.569211,1.690004 0.967517,3.020703 0.683935,2.368249 1.086342,4.801747 1.418402,7.240079 0.139775,1.061473 0.244049,2.127021 0.341932,3.193003 0.08475,0.981128 1.472279,0.861268 1.387525,-0.11986 v 0 c -0.08817,-1.087995 -0.18424,-2.175495 -0.317709,-3.259053 -0.320423,-2.51714 -0.72241,-5.028549 -1.414801,-7.474168 -0.402868,-1.369071 -0.500351,-1.770737 -0.98739,-3.132604 C 56.900362,26.790558 55.86152,24.511299 54.685821,22.306773 53.914806,20.899471 53.595407,20.268871 52.749092,18.911646 51.711589,17.247814 50.525996,15.68693 49.240685,14.20728 48.650765,13.534365 48.069967,12.846957 47.413441,12.236986 46.748292,11.571835 45.807626,12.5125 46.472776,13.17765 Z" />
      <path
         style="stroke-width:5.29167;stroke-linecap:round;stroke-linejoin:round;-inkscape-stroke:none;paint-order:stroke fill markers"
         id="path7"
         d="m 45.132812,13.551343 c -0.408742,1.083496 -0.630444,2.230823 -0.870154,3.360511 -0.501346,2.641869 -0.836866,5.314755 -1.033534,7.996251 -0.04787,0.652699 -0.08072,1.306413 -0.121084,1.95962 -0.188822,3.405684 -0.184324,6.816793 -0.07285,10.224575 0.07645,2.119134 0.242615,4.233632 0.457478,6.34282 0.08819,0.819763 0.194527,1.637403 0.299538,2.455133 0.118943,0.96593 1.484973,0.797718 1.36603,-0.168212 v 0 c -0.09504,-0.80652 -0.190926,-1.613013 -0.269132,-2.42139 -0.188436,-2.079363 -0.331623,-4.163234 -0.391636,-6.250597 -0.08415,-3.364015 -0.06729,-6.729915 0.120036,-10.090815 0.08711,-1.465465 0.127911,-2.348548 0.260443,-3.805876 0.181462,-1.995373 0.446519,-3.984131 0.782373,-5.95915 0.204827,-1.069184 0.397838,-2.14741 0.723281,-3.188037 0.321617,-0.884444 -0.929177,-1.339278 -1.250794,-0.454833 z" />
      <path
         style="stroke-width:5.29167;stroke-linecap:round;stroke-linejoin:round;-inkscape-stroke:none;paint-order:stroke fill markers"
         id="path8"
         d="m 47.730311,13.067817 c 0.553731,0.207032 1.096113,0.442053 1.635961,0.68251 0.681765,0.302055 1.352942,0.632533 1.990934,1.019749 0.542698,0.329379 0.850699,0.550701 1.384758,0.914925 1.753089,1.220375 3.412651,2.567926 5.036272,3.953889 1.574808,1.364432 3.049895,2.836932 4.489712,4.341369 1.165595,1.216919 2.27367,2.486987 3.356288,3.777725 0.79573,0.933529 1.53964,1.907908 2.25162,2.906188 0.53993,0.745465 1.05112,1.510905 1.56292,2.275731 0.53165,0.803185 1.66752,0.05133 1.13588,-0.751857 v 0 c -0.51259,-0.782981 -1.02669,-1.565218 -1.57357,-2.324933 -0.73072,-1.028223 -1.49189,-2.034186 -2.30336,-3.000493 -1.0957,-1.320959 -2.219065,-2.619414 -3.401737,-3.863736 -1.469511,-1.54325 -2.975753,-3.053879 -4.587668,-4.449816 -1.665119,-1.420745 -3.366196,-2.804185 -5.177187,-4.036858 -0.259662,-0.172505 -0.516356,-0.349561 -0.778984,-0.517514 -0.902057,-0.576873 -1.849776,-1.079779 -2.835129,-1.499005 -0.579901,-0.25101 -1.162714,-0.499899 -1.765385,-0.691844 -0.893762,-0.29792 -1.315085,0.966049 -0.421325,1.26397 z" />
      <path
         style="stroke-width:5.29167;stroke-linecap:round;stroke-linejoin:round;-inkscape-stroke:none;paint-order:stroke fill markers"
         id="path9"
         d="m 41.254581,46.724785 c -0.25168,0.272449 -0.410604,0.613349 -0.566631,0.945674 -0.166007,0.370186 -0.315003,0.750252 -0.422507,1.141998 -0.08608,0.313686 -0.10179,0.429292 -0.163197,0.74898 -0.11761,0.672435 -0.17054,1.353468 -0.200593,2.034703 -0.02743,0.549609 0.0069,1.098736 0.07432,1.644057 0.07117,0.545354 0.233345,1.069289 0.445798,1.574526 0.209966,0.489047 0.51452,0.924984 0.829827,1.350257 0.575701,0.776622 1.674013,-0.03754 1.098309,-0.814165 v 0 c -0.251753,-0.339693 -0.504707,-0.68222 -0.677574,-1.070686 -0.168537,-0.385352 -0.288345,-0.788825 -0.347458,-1.206143 -0.0576,-0.469164 -0.08613,-0.941542 -0.05882,-1.414241 0.0305,-0.617804 0.08376,-1.234927 0.187228,-1.845248 0.03888,-0.214069 0.06754,-0.395326 0.121586,-0.605278 0.08607,-0.334348 0.21336,-0.6574 0.348114,-0.974531 0.08562,-0.194195 0.184069,-0.400888 0.283639,-0.580011 0.657534,-0.673196 -0.29451,-1.603087 -0.952041,-0.929892 z" />
      <path
         style="stroke-width:5.29167;stroke-linecap:round;stroke-linejoin:round;-inkscape-stroke:none;paint-order:stroke fill markers"
         id="path10"
         d="m 43.540749,48.018029 c 0.04932,0.318043 0.145549,0.627341 0.196801,0.945 0.018,0.111509 0.02778,0.224189 0.04162,0.33629 0.01411,0.136929 0.03271,0.273469 0.04233,0.410789 0.04582,0.65293 0.03418,1.317778 -0.02138,1.969608 -0.014,0.164362 -0.03527,0.328023 -0.05291,0.492036 -0.10228,0.64667 -0.316669,1.265735 -0.53435,1.880418 -0.339388,0.948065 1.00138,1.428031 1.340768,0.479963 v 0 c 0.260002,-0.719334 0.508515,-1.446166 0.612533,-2.207833 0.0199,-0.185088 0.044,-0.369772 0.05968,-0.555264 0.07551,-0.892831 0.06726,-1.796871 -0.06285,-2.684079 -0.02552,-0.142113 -0.0474,-0.284923 -0.07648,-0.426351 -0.02267,-0.110251 -0.102821,-0.41642 -0.135989,-0.537352 -0.0061,-0.02247 -0.05856,-0.242137 -0.09007,-0.283986 -0.127821,-0.933196 -1.447559,-0.75243 -1.319738,0.180766 z" />
      <path
         style="stroke-width:5.29167;stroke-linecap:round;stroke-linejoin:round;-inkscape-stroke:none;paint-order:stroke fill markers"
         id="path11"
         d="m 35.713428,66.76696 c 0.331311,-0.273788 0.635847,-0.579035 0.945158,-0.877065 0.727072,-0.704501 1.462011,-1.400976 2.173227,-2.121654 0.183702,-0.18615 0.364995,-0.374663 0.547494,-0.561993 0.970113,-1.013421 1.906278,-2.05908 2.892417,-3.057218 0.205994,-0.208503 0.415737,-0.413264 0.623607,-0.619898 1.34289,-1.314371 2.774892,-2.531655 4.219869,-3.731085 0.819126,-0.676087 1.641004,-1.348833 2.463022,-2.021398 0.838512,-0.666573 -0.104164,-1.852406 -0.942676,-1.185836 v 0 c -0.847794,0.654827 -1.692347,1.313907 -2.524303,1.988833 -0.620479,0.507595 -0.862438,0.699939 -1.47529,1.224163 -0.979963,0.838245 -1.932744,1.708566 -2.848512,2.616642 -0.213426,0.214363 -0.428754,0.426845 -0.640276,0.643086 -0.982149,1.004072 -1.914982,2.0545 -2.875576,3.07885 -0.871947,0.921226 -1.760828,1.826011 -2.635163,2.744939 -0.275936,0.297706 -0.550015,0.597487 -0.823401,0.897374 -0.694563,0.636682 0.20584,1.61894 0.900403,0.98226 z" />
      <path
         style="stroke-width:5.29167;stroke-linecap:round;stroke-linejoin:round;-inkscape-stroke:none;paint-order:stroke fill markers"
         id="path19"
         d="m 85.419646,17.644179 c 0.36861,0.633095 0.73365,1.267443 1.07796,1.914207 0.44891,0.896503 0.89072,1.798808 1.26053,2.731552 0.28702,0.723922 0.39485,1.079346 0.64805,1.83169 0.79384,2.480792 1.46465,4.998422 2.11282,7.520439 0.6134,2.371467 1.08012,4.775884 1.48202,7.191002 0.27351,1.689216 0.47585,3.388567 0.65061,5.090457 0.10608,1.063093 0.18247,2.128735 0.24526,3.195155 0.0537,0.95772 1.40811,0.881792 1.35442,-0.07593 v 0 c -0.0579,-1.086373 -0.13033,-2.17202 -0.23246,-3.255228 -0.16684,-1.732332 -0.36444,-3.462023 -0.63622,-5.181417 -0.39858,-2.457846 -0.86733,-4.904384 -1.48733,-7.317171 -0.65517,-2.557677 -1.34547,-5.107694 -2.16634,-7.617977 -0.27602,-0.800817 -0.38464,-1.15151 -0.69647,-1.923503 -0.39158,-0.969401 -0.85501,-1.9082 -1.33114,-2.83817 -0.35382,-0.648326 -0.72231,-1.287831 -1.11869,-1.911227 -0.45688,-0.822373 -1.61989,-0.176256 -1.16302,0.646118 z" />
      <path
         style="stroke-width:5.29167;stroke-linecap:round;stroke-linejoin:round;-inkscape-stroke:none;paint-order:stroke fill markers"
         id="path20"
         d="m 77.845045,52.977411 c 0.27539,-0.08961 0.54836,-0.186259 0.82169,-0.281885 0.53861,-0.190251 1.08556,-0.35393 1.63896,-0.494924 0.74669,-0.190238 1.51112,-0.290013 2.27609,-0.370435 0.95029,-0.0883 1.90392,-0.131678 2.85608,-0.194255 1.03494,-0.06225 2.06112,-0.207101 3.078,-0.405402 0.94536,-0.180228 1.85367,-0.495573 2.73444,-0.877325 0.44756,-0.207007 0.88681,-0.437112 1.29466,-0.71554 0.23504,-0.16045 0.29898,-0.219603 0.51681,-0.39639 0.42614,-0.357867 0.76978,-0.791234 1.04983,-1.26921 0.10997,-0.198195 0.19358,-0.408529 0.2759,-0.619093 0.34902,-0.889513 -0.90894,-1.38311 -1.25796,-0.493597 v 0 c -0.0585,0.148248 -0.11735,0.296529 -0.19279,0.437249 -0.1881,0.338214 -0.44252,0.632169 -0.73499,0.885203 -0.45538,0.369758 -0.95746,0.670852 -1.49726,0.90271 -0.79172,0.337726 -1.60787,0.616555 -2.45569,0.776592 -0.95812,0.186845 -1.92525,0.325157 -2.90021,0.385911 -0.97278,0.06109 -1.94695,0.107375 -2.91703,0.204404 -0.83135,0.09354 -1.66194,0.207609 -2.47266,0.420064 -0.59095,0.157476 -1.17655,0.333993 -1.74989,0.547772 -0.26236,0.09637 -0.5259,0.190445 -0.78461,0.296252 -0.8923,0.297432 -0.47167,1.559333 0.42063,1.261899 z" />
      <path
         style="stroke-width:5.29167;stroke-linecap:round;stroke-linejoin:round;-inkscape-stroke:none;paint-order:stroke fill markers"
         id="path21"
         d="m 94.893576,46.03183 c 0.12523,-0.05756 0.2631,-0.06848 0.39852,-0.07924 0.26046,-0.01408 0.48069,0.09339 0.69577,0.227406 0.36771,0.243562 0.64312,0.594037 0.89971,0.946745 0.31575,0.441662 0.55802,0.926476 0.77692,1.421398 0.23834,0.53594 0.37635,1.105497 0.49838,1.676707 0.15424,0.744469 0.21189,1.503455 0.26571,2.260351 0.0893,0.934982 0.0385,1.8709 -0.0543,2.8028 -0.0793,0.635119 -0.18478,1.268873 -0.34323,1.889532 -0.0873,0.341942 -0.14527,0.504981 -0.25267,0.838917 -0.164,0.499325 -0.42696,0.952717 -0.76942,1.350674 -0.18825,0.21876 -0.35394,0.363665 -0.56414,0.561028 -0.0998,0.08559 -0.19959,0.171178 -0.29939,0.256765 -0.74394,0.636304 0.15593,1.688401 0.89987,1.052094 v 0 c 0.11686,-0.09972 0.23372,-0.199442 0.35058,-0.299164 0.29772,-0.281157 0.44708,-0.406363 0.71375,-0.724784 0.43863,-0.52374 0.77194,-1.12233 0.98999,-1.769403 0.13544,-0.416904 0.17648,-0.521558 0.28691,-0.951119 0.17459,-0.679048 0.2948,-1.371632 0.37678,-2.067608 0.0433,-0.443108 0.0659,-0.61841 0.0873,-1.063646 0.0317,-0.659633 0.0118,-1.320125 -0.0387,-1.978297 -0.0628,-0.820227 -0.13693,-1.641492 -0.30779,-2.447627 -0.1442,-0.662042 -0.31338,-1.320054 -0.59032,-1.941112 -0.25974,-0.584652 -0.54966,-1.156416 -0.9257,-1.676456 -0.37129,-0.50106 -0.78011,-0.981318 -1.31793,-1.311215 -0.0866,-0.04855 -0.17091,-0.101595 -0.25991,-0.145646 -0.39099,-0.193509 -0.81985,-0.279908 -1.25486,-0.249982 -0.34196,0.03893 -0.6842,0.104458 -0.97666,0.297647 -0.79425,0.505431 -0.0795,1.628668 0.71479,1.123237 z" />
      <path
         style="stroke-width:5.29167;stroke-linecap:round;stroke-linejoin:round;-inkscape-stroke:none;paint-order:stroke fill markers"
         id="path22"
         d="m 47.732414,51.966018 c 0.118206,-0.02714 0.237252,-0.0506 0.356238,-0.07415 0.346932,-0.06552 0.698315,-0.10056 1.048874,-0.139784 0.570884,-0.06384 1.142064,-0.125074 1.713736,-0.181438 0.604747,-0.06132 1.21159,-0.09637 1.818656,-0.124092 0.644739,-0.0288 1.290005,-0.04179 1.935297,-0.04915 0.608685,-0.01019 1.216176,0.0338 1.821124,0.09652 0.572424,0.05365 1.136579,0.161044 1.695577,0.292556 0.535308,0.125632 1.052759,0.310239 1.564291,0.509354 0.488813,0.195654 0.959236,0.433893 1.424469,0.679506 0.436602,0.231 0.856565,0.491569 1.273262,0.756298 0.377397,0.245025 0.749375,0.49843 1.117757,0.756785 0.415231,0.289272 0.786881,0.633476 1.155337,0.978675 0.402513,0.376225 0.756756,0.797603 1.098666,1.228294 0.39644,0.510905 0.75387,1.05083 1.10731,1.591945 0.40437,0.612505 0.78368,1.240592 1.14716,1.878026 0.29543,0.51381 0.53261,1.057034 0.75437,1.605695 0.20181,0.49662 0.3658,1.006811 0.51203,1.522137 0.0824,0.317387 0.0429,0.159732 0.1187,0.472932 0.22509,0.945807 1.56266,0.627476 1.33757,-0.31833 v 0 c -0.0817,-0.348848 -0.0386,-0.172644 -0.12977,-0.528548 -0.15786,-0.563287 -0.3368,-1.120465 -0.55522,-1.663549 -0.24183,-0.605779 -0.50476,-1.203346 -0.82366,-1.773216 -0.3718,-0.669695 -0.76585,-1.326423 -1.19435,-1.961671 -0.37977,-0.57498 -0.76701,-1.146141 -1.1929,-1.688307 -0.38569,-0.480951 -0.78413,-0.952418 -1.233939,-1.375566 -0.416083,-0.38948 -0.845835,-0.764852 -1.314944,-1.090088 -0.384689,-0.269642 -0.772282,-0.535199 -1.165151,-0.792814 -0.446858,-0.286536 -0.897975,-0.56737 -1.367015,-0.816551 -0.511402,-0.27182 -1.029525,-0.532686 -1.567812,-0.747755 -0.572061,-0.223748 -1.151253,-0.429961 -1.750182,-0.570852 -0.616167,-0.144039 -1.237832,-0.261316 -1.868178,-0.323636 -0.656931,-0.06851 -1.316387,-0.116833 -1.977456,-0.106254 -0.662898,0.0049 -1.325634,0.02073 -1.987883,0.05132 -0.630706,0.0308 -1.261116,0.06959 -1.889617,0.131762 -0.581711,0.05784 -1.162775,0.122701 -1.742549,0.197607 -0.389752,0.05097 -0.780603,0.09869 -1.16523,0.181438 -0.214209,0.04878 -0.432872,0.0908 -0.632682,0.185653 -0.855062,0.394644 -0.29695,1.603888 0.558114,1.209244 z" />
      <path
         style="stroke-width:5.29167;stroke-linecap:round;stroke-linejoin:round;-inkscape-stroke:none;paint-order:stroke fill markers"
         id="path26"
         d="m 84.976986,96.866948 c 0.24499,-0.529037 0.59411,-0.99735 0.93717,-1.465184 1.12293,-1.480788 2.36004,-2.870872 3.60256,-4.25129 0.22705,-0.248444 0.4541,-0.496888 0.68115,-0.745329 0.66659,-0.727326 -0.362,-1.670026 -1.02859,-0.942699 v 0 c -0.23049,0.25078 -0.46097,0.50156 -0.69145,0.75234 -1.27698,1.416981 -2.54341,2.849329 -3.6714,4.389733 -0.37628,0.531884 -0.75857,1.066702 -1.0197,1.667304 -0.42081,0.841634 0.76944,1.436762 1.19026,0.595125 z" />
      <path
         style="stroke-width:5.29167;stroke-linecap:round;stroke-linejoin:round;-inkscape-stroke:none;paint-order:stroke fill markers"
         id="path28"
         d="m 82.901216,88.727907 c 0.23437,-0.642806 0.58133,-1.246333 0.90665,-1.846644 0.9626,-1.768612 2.08357,-3.444105 3.23624,-5.092843 1.06457,-1.495329 2.25198,-2.896282 3.47086,-4.266618 0.53146,-0.596831 1.09332,-1.165185 1.65371,-1.734536 0.67799,-0.683409 -0.2885,-1.642235 -0.96649,-0.958827 v 0 c -0.58151,0.581592 -1.16405,1.162646 -1.71521,1.773487 -1.26404,1.404355 -2.49203,2.843818 -3.58882,4.384518 -1.18693,1.694344 -2.33962,3.4186 -3.30586,5.250694 -0.37258,0.718325 -0.7862,1.443474 -0.99565,2.229852 -0.1845,0.92247 1.12007,1.183384 1.30457,0.260917 z" />
      <path
         style="stroke-width:5.29167;stroke-linecap:round;stroke-linejoin:round;-inkscape-stroke:none;paint-order:stroke fill markers"
         id="path29"
         d="m 90.812366,74.312012 c -0.61806,-0.01016 -1.23623,-0.0126 -1.85437,-0.01495 -0.6947,-0.0011 -0.3474,-7.94e-4 -1.04188,-7.94e-4 -0.96303,0 -0.96303,1.361929 0,1.361929 v 0 c 0.69448,1.6e-5 0.34718,2.65e-4 1.04188,-7.93e-4 0.61814,-0.0024 1.23631,-0.0048 1.85437,-0.01495 0.94069,0 0.94069,-1.330336 0,-1.330336 z" />
      <path
         style="stroke-width:5.29167;stroke-linecap:round;stroke-linejoin:round;-inkscape-stroke:none;paint-order:stroke fill markers"
         id="path30"
         d="m 94.328856,62.726723 c -0.58378,0.921335 -1.12037,1.872089 -1.66352,2.817723 -1.02733,1.767043 -2.11816,3.495646 -3.22264,5.21512 -0.87137,1.338672 -1.77259,2.657522 -2.65855,3.986498 -0.54002,0.804122 0.59718,1.567828 1.1372,0.763707 v 0 c 0.90005,-1.330341 1.81422,-2.651247 2.69405,-3.995174 1.12153,-1.737921 2.22854,-3.485917 3.25297,-5.28343 0.54235,-0.956051 1.07976,-1.914988 1.62915,-2.866991 0.45075,-0.82637 -0.71791,-1.46382 -1.16866,-0.637453 z" />
      <path
         style="stroke-width:5.29167;stroke-linecap:round;stroke-linejoin:round;-inkscape-stroke:none;paint-order:stroke fill markers"
         id="path31"
         d="m 56.992298,92.237482 c -0.781357,-0.279001 -1.577105,-0.517358 -2.37149,-0.756351 -0.921533,-0.275585 -1.837724,-0.568233 -2.751441,-0.868543 -0.922939,-0.304688 -1.353836,1.000543 -0.430898,1.305232 v 0 c 0.926044,0.307047 1.854983,0.605195 2.791605,0.878652 0.781974,0.229275 1.56395,0.459886 2.341589,0.702908 0.8923,0.297432 1.312931,-0.964467 0.420635,-1.261898 z" />
      <path
         style="stroke-width:5.29167;stroke-linecap:round;stroke-linejoin:round;-inkscape-stroke:none;paint-order:stroke fill markers"
         id="path32"
         d="m 54.201116,88.163293 c 0.0024,0.04183 0.0019,0.08391 0.007,0.125484 0.04022,0.324546 0.176191,0.635812 0.29436,0.93727 0.25524,0.624491 0.557858,1.228067 0.876945,1.821953 0.349237,0.633973 0.727641,1.251085 1.10545,1.868233 0.50821,0.855689 1.718334,0.136973 1.210125,-0.718714 v 0 c -0.35302,-0.612867 -0.71162,-1.22251 -1.062082,-1.836848 -0.304776,-0.543722 -0.591823,-1.097413 -0.845034,-1.667267 -0.07216,-0.16402 -0.14522,-0.327665 -0.211966,-0.493995 -0.0108,-0.02689 -0.01849,-0.05513 -0.03148,-0.08104 -0.0016,-0.0029 -0.0088,-0.0045 -0.0098,-0.0013 -0.0043,0.01487 -0.0021,0.03086 -0.0032,0.04629 0,-0.940689 -1.330335,-0.940689 -1.330335,0 z" />
      <path
         style="stroke-width:5.29167;stroke-linecap:round;stroke-linejoin:round;-inkscape-stroke:none;paint-order:stroke fill markers"
         id="path33"
         d="m 51.757498,92.404691 c 0.305033,0.547825 0.596207,1.102942 0.86016,1.671704 0.382765,0.860565 0.660099,1.760905 0.893363,2.671712 0.195676,0.807864 0.319935,1.630524 0.428911,2.45383 0.01378,0.11298 0.02758,0.22597 0.04137,0.33895 0.112982,0.955063 1.463646,0.795283 1.350663,-0.15978 v 0 c -0.01355,-0.11796 -0.02706,-0.23593 -0.0406,-0.35389 -0.111067,-0.879056 -0.240683,-1.757146 -0.451014,-2.618814 -0.253841,-0.995365 -0.555281,-1.980229 -0.982646,-2.916684 -0.280792,-0.587293 -0.580277,-1.16721 -0.927439,-1.718519 -0.446532,-0.829273 -1.619303,-0.197782 -1.172771,0.631491 z" />
      <path
         style="stroke-width:5.29167;stroke-linecap:round;stroke-linejoin:round;-inkscape-stroke:none;paint-order:stroke fill markers"
         id="path35"
         d="m 50.424847,43.997914 c -0.331025,-0.400529 -0.6306,-0.82627 -0.93496,-1.247085 -0.87679,-1.203338 -1.690421,-2.450385 -2.478651,-3.71294 -0.536483,-0.880708 -0.273974,-0.444757 -0.787866,-1.307645 -0.51345,-0.869463 -1.743059,-0.143335 -1.229609,0.726128 v 0 c 0.519036,0.886248 0.253098,0.438621 0.798288,1.342596 0.808934,1.295972 1.647867,2.574314 2.57874,3.786963 0.355542,0.462328 0.703405,0.936382 1.112703,1.353338 0.665638,0.665639 1.606994,-0.275717 0.941355,-0.941355 z" />
      <path
         style="stroke-width:5.29167;stroke-linecap:round;stroke-linejoin:round;-inkscape-stroke:none;paint-order:stroke fill markers"
         id="path36"
         d="m 45.518665,37.807704 c 0.331007,0.01754 0.656141,0.09601 0.979644,0.163105 0.88001,0.186324 1.739911,0.451622 2.594623,0.729038 0.740479,0.247975 1.47709,0.508354 2.203646,0.794723 0.08834,0.03668 0.176676,0.07336 0.265012,0.110041 0.890482,0.376393 1.422784,-0.882939 0.532302,-1.259332 v 0 c -0.09565,-0.04109 -0.191302,-0.08218 -0.286954,-0.12327 -0.751522,-0.306226 -1.513895,-0.585306 -2.28301,-0.844163 -0.910053,-0.297958 -1.827792,-0.580443 -2.769936,-0.759233 -0.407514,-0.07037 -0.819915,-0.149918 -1.235327,-0.141245 -0.940689,0 -0.940689,1.330336 0,1.330336 z" />
      <path
         style="stroke-width:5.29167;stroke-linecap:round;stroke-linejoin:round;-inkscape-stroke:none;paint-order:stroke fill markers"
         id="path37"
         d="m 52.176632,37.561406 c -0.372282,-0.751801 -0.730654,-1.510409 -1.096375,-2.26544 -0.74509,-1.533715 -1.53466,-3.044946 -2.345989,-4.54447 -0.332692,-0.614182 -0.673846,-1.223711 -1.014298,-1.833607 -0.480838,-0.875191 -1.718548,-0.195183 -1.237711,0.680008 v 0 c 0.329899,0.610203 0.66071,1.219917 0.987058,1.832031 0.793345,1.492483 1.570505,2.993361 2.335374,4.500644 0.382068,0.74789 0.749323,1.505228 1.180999,2.226305 0.421061,0.842124 1.612003,0.246652 1.190942,-0.595471 z" />
      <path
         style="stroke-width:5.29167;stroke-linecap:round;stroke-linejoin:round;-inkscape-stroke:none;paint-order:stroke fill markers"
         id="path38"
         d="m 47.241878,29.12927 c 0.501224,0.198604 0.981721,0.442878 1.462511,0.685731 0.752464,0.387657 1.502987,0.779899 2.228133,1.217237 0.541353,0.326493 0.774361,0.485441 1.305422,0.832151 1.109716,0.731221 2.167943,1.535266 3.202895,2.367749 0.5041,0.415692 0.259522,0.211378 0.734105,0.612489 0.745895,0.639228 1.649902,-0.415626 0.904007,-1.054854 v 0 c -0.487172,-0.423095 -0.236328,-0.208188 -0.752948,-0.644231 -1.063667,-0.877144 -2.153367,-1.723832 -3.305315,-2.48321 -0.576906,-0.374735 -0.785069,-0.518978 -1.377064,-0.867609 -0.755997,-0.445211 -1.539415,-0.841721 -2.327267,-1.226814 -0.528005,-0.251905 -1.056174,-0.508003 -1.613352,-0.690269 -0.885037,-0.326065 -1.346163,0.925565 -0.461127,1.25163 z" />
      <path
         style="stroke-width:5.29167;stroke-linecap:round;stroke-linejoin:round;-inkscape-stroke:none;paint-order:stroke fill markers"
         id="path48"
         d="m 85.69307,38.282993 c -0.338183,0.0033 -0.668581,0.09971 -0.991254,0.191561 -0.439092,0.125 -0.451241,0.134665 -0.906806,0.285279 -0.931609,0.325025 -1.854245,0.681974 -2.746428,1.104665 -0.190492,0.09025 -0.377875,0.186917 -0.566814,0.280376 -1.061196,0.533802 -2.051458,1.189297 -2.996428,1.90581 -0.795049,0.608343 -1.517552,1.301366 -2.216348,2.01599 -0.510104,0.523679 -0.977813,1.085852 -1.439,1.65237 -0.234537,0.29614 -0.120674,0.15195 -0.341659,0.432525 -0.600371,0.752835 0.464299,1.601888 1.06467,0.849053 v 0 c 0.219676,-0.272039 0.108146,-0.133966 0.334592,-0.414216 0.438735,-0.53086 0.884529,-1.056671 1.367859,-1.547926 0.656682,-0.661397 1.332185,-1.305912 2.074206,-1.872273 0.876575,-0.66217 1.796738,-1.264576 2.779059,-1.760019 0.173262,-0.08658 0.344882,-0.176517 0.519785,-0.259729 0.850855,-0.404799 1.7321,-0.744003 2.616168,-1.067908 0.477676,-0.168267 0.957011,-0.340373 1.448398,-0.464188 0.941422,0 0.941422,-1.33137 0,-1.33137 z" />
      <path
         style="stroke-width:5.29167;stroke-linecap:round;stroke-linejoin:round;-inkscape-stroke:none;paint-order:stroke fill markers"
         id="path49"
         d="m 85.434225,39.794219 c -0.04721,0.372256 -0.107138,0.742423 -0.171648,1.11207 -0.178459,0.916535 -0.441587,1.812878 -0.722255,2.70242 -0.319714,1.043985 -0.742587,2.049081 -1.191884,3.042481 -0.335767,0.723132 -0.679558,1.442987 -1.052377,2.147853 -0.458653,0.852649 0.747175,1.501283 1.205827,0.648631 v 0 c 0.396928,-0.72658 0.766419,-1.467927 1.119511,-2.216735 0.478597,-1.043892 0.921268,-2.103614 1.257607,-3.203246 0.295828,-0.952474 0.567102,-1.91416 0.735465,-2.898577 0.06888,-0.442272 0.139639,-0.886653 0.151468,-1.334897 0,-0.941665 -1.331714,-0.941665 -1.331714,0 z" />
      <path
         style="stroke-width:5.29167;stroke-linecap:round;stroke-linejoin:round;-inkscape-stroke:none;paint-order:stroke fill markers"
         id="path50"
         d="m 75.236964,38.118102 c 0.197744,-0.543647 0.476023,-1.052335 0.752737,-1.558779 0.694132,-1.251006 1.499941,-2.436506 2.321586,-3.606279 0.768107,-1.074023 1.577809,-2.11737 2.396379,-3.153156 0.09772,-0.121311 0.195435,-0.242623 0.293153,-0.363934 0.6232,-0.760701 -0.452593,-1.642039 -1.075793,-0.881338 v 0 c -0.102658,0.123275 -0.205314,0.246549 -0.307972,0.369821 -0.853459,1.047129 -1.694559,2.105263 -2.478392,3.20602 -0.85444,1.219541 -1.689576,2.45781 -2.390106,3.773808 -0.318002,0.622271 -0.649335,1.25068 -0.813855,1.934781 -0.197321,0.92084 1.104939,1.199896 1.302263,0.279056 z" />
      <path
         style="stroke-width:5.29167;stroke-linecap:round;stroke-linejoin:round;-inkscape-stroke:none;paint-order:stroke fill markers"
         id="path51"
         d="m 81.012292,29.081928 c 0.0455,0.682339 0.127616,1.362768 0.190555,2.044046 0.134752,1.422117 0.225457,2.847078 0.264457,4.274908 0.02548,1.044217 7.93e-4,2.08865 -0.07279,3.130396 -0.04025,0.477345 -0.01942,0.244941 -0.06217,0.697246 -0.09902,0.965417 1.266283,1.105458 1.365308,0.140041 v 0 c 0.05211,-0.472567 0.02654,-0.229129 0.07625,-0.730363 0.0915,-1.088065 0.131683,-2.179707 0.112321,-3.27174 -0.03123,-1.465667 -0.115496,-2.929414 -0.279992,-4.386686 -0.07341,-0.634651 -0.152742,-1.268314 -0.262226,-1.897848 0,-0.941665 -1.331714,-0.941665 -1.331713,0 z" />
      <path
         style="stroke-width:5.29167;stroke-linecap:round;stroke-linejoin:round;-inkscape-stroke:none;paint-order:stroke fill markers"
         id="path54"
         d="m 51.134167,95.653702 c -1.421162,-0.266283 -2.834876,-0.572028 -4.251304,-0.862612 -3.645125,-0.735917 -7.328506,-1.258718 -11.011141,-1.764855 -1.578303,-0.211979 -3.15828,-0.416359 -4.746963,-0.534075 -0.455152,-0.03373 -0.91054,-0.07181 -1.366869,-0.07985 -1.278852,-0.02254 -1.464489,0.04207 -2.728096,0.19027 -1.864965,0.310788 -3.616592,1.02221 -5.219122,2.017453 -1.133598,0.704017 -1.460431,1.013729 -2.512816,1.84878 -1.325654,1.124456 -2.515766,2.398384 -3.630411,3.729517 -0.375565,0.44851 -0.731055,0.91345 -1.096582,1.37018 -0.658729,0.82302 0.505202,1.75461 1.163931,0.93158 v 0 c 0.352155,-0.43995 0.695092,-0.88745 1.056465,-1.31986 1.056591,-1.264313 2.176252,-2.483583 3.426213,-3.560371 0.974692,-0.784446 1.268872,-1.067946 2.316071,-1.730916 1.43046,-0.9056 2.994219,-1.560846 4.667651,-1.846511 1.10034,-0.133138 1.348642,-0.202578 2.466253,-0.177803 0.441927,0.0098 0.882624,0.05183 1.323204,0.08767 1.564414,0.127241 3.119304,0.340477 4.672747,0.561163 3.653686,0.52147 7.308749,1.044064 10.940356,1.704921 1.447975,0.26928 2.892978,0.56749 4.354357,0.75574 0.933677,0.12449 1.109733,-1.19593 0.176056,-1.320421 z" />
      <path
         style="stroke-width:5.29167;stroke-linecap:round;stroke-linejoin:round;-inkscape-stroke:none;paint-order:stroke fill markers"
         id="path55"
         d="m 52.092865,98.613987 c -0.120576,0.77934 -0.39026,1.543923 -0.705919,2.264103 -0.13713,0.31287 -0.294139,0.61665 -0.441211,0.92497 -0.785796,1.45173 -1.635773,2.90135 -2.754923,4.12726 -0.829366,0.90848 -1.132602,1.08267 -2.107827,1.85513 -2.316943,1.63065 -6.735401,3.46163 -8.088998,3.86275 -1.353598,0.40112 -0.973462,1.85788 0.465388,1.42866 1.438849,-0.42922 6.097662,-2.38485 8.544656,-4.14256 1.09542,-0.88781 1.386819,-1.05029 2.318774,-2.08783 1.187844,-1.32242 2.101681,-2.87128 2.918703,-4.44024 0.155657,-0.34201 0.323178,-0.67886 0.466966,-1.02602 0.362143,-0.87437 0.668838,-1.814823 0.716452,-2.766223 0,-0.941908 -1.332061,-0.941908 -1.332061,0 z"
         sodipodi:nodetypes="cscsczzcscscc" />
      <path
         style="stroke-width:5.29167;stroke-linecap:round;stroke-linejoin:round;-inkscape-stroke:none;paint-order:stroke fill markers"
         id="path57"
         d="m 37.1225,112.44162 c 0.0702,0.48829 0.133987,0.97742 0.188878,1.46767 0.09105,0.73178 0.119192,1.46575 0.07024,2.20113 -0.08884,0.9569 -0.434779,1.85685 -0.820571,2.72794 -0.48279,1.01403 -1.045562,1.9858 -1.663591,2.92259 -0.546119,0.8255 -1.224257,1.53969 -1.939401,2.218 -0.709955,0.65229 -1.514661,1.18852 -2.349947,1.66506 -0.711964,0.39136 -1.46877,0.68731 -2.247238,0.9146 -0.988899,0.24572 -2.011571,0.30706 -3.024704,0.37517 -1.326146,0.0857 -2.655172,0.0976 -3.983166,0.0627 -1.064228,-0.0241 -2.120597,-0.13386 -3.152774,-0.39512 -0.87651,-0.23106 -1.67283,-0.65661 -2.437924,-1.13098 -0.82249,-0.52001 -1.546151,-1.17308 -2.245385,-1.84499 -0.730352,-0.74497 -1.231569,-1.65542 -1.678129,-2.58778 -0.434909,-0.93458 -0.706765,-1.92887 -0.929193,-2.93169 -0.210386,-0.99164 -0.310039,-1.99995 -0.374679,-3.00995 -0.07143,-1.02251 6.08e-4,-2.04416 0.112296,-3.06045 0.108555,-0.91659 0.29639,-1.82123 0.533601,-2.71249 0.231844,-0.79412 0.534288,-1.56422 0.908065,-2.30167 0.410019,-0.76146 0.916471,-1.46441 1.44163,-2.1494 0.495704,-0.65887 1.073054,-1.24666 1.659533,-1.82344 0.09274,-0.0885 0.185487,-0.17692 0.27823,-0.26537 0.693113,-0.65994 -0.240185,-1.64015 -0.933298,-0.98021 v 0 c -0.09794,0.0931 -0.195869,0.18619 -0.293803,0.27929 -0.632623,0.6203 -1.252748,1.25486 -1.787476,1.96375 -0.57719,0.75212 -1.130857,1.52591 -1.575744,2.36538 -0.412135,0.82251 -0.754963,1.67692 -1.008533,2.56232 -0.2552294,0.95729 -0.4590514,1.92858 -0.5760208,2.9132 -0.1200779,1.09478 -0.1956601,2.19543 -0.1188667,3.2968 0.070101,1.07964 0.1808935,2.15736 0.405558,3.21729 0.2452822,1.10468 0.5472295,2.19916 1.0287455,3.2276 0.519533,1.07821 1.109921,2.12556 1.96465,2.97909 0.76883,0.73812 1.568591,1.45018 2.473953,2.01922 0.88511,0.54563 1.809055,1.02899 2.821233,1.29455 1.129388,0.28179 2.282718,0.41871 3.446976,0.44546 1.371947,0.0387 2.74518,0.027 4.115009,-0.0669 1.110682,-0.0789 2.230534,-0.15765 3.311451,-0.44216 0.879019,-0.25905 1.736271,-0.58858 2.53971,-1.03354 0.930121,-0.53119 1.826224,-1.12688 2.613765,-1.85752 0.789484,-0.74976 1.533437,-1.54444 2.13956,-2.4536 0.662581,-1.00013 1.265,-2.03896 1.776585,-3.12516 0.44486,-1.01932 0.832564,-2.07303 0.921745,-3.19146 0.04997,-0.81559 0.02408,-1.62996 -0.08138,-2.44105 -0.05949,-0.50696 -0.124992,-1.01352 -0.213646,-1.51631 -0.143155,-0.93051 -1.459095,-0.72805 -1.315939,0.20246 z" />
      <path
         style="stroke-width:5.29167;stroke-linecap:round;stroke-linejoin:round;-inkscape-stroke:none;paint-order:stroke fill markers"
         id="path60"
         d="m 84.82306,100.55061 c 3.228748,0.0492 6.428251,0.57487 9.613149,1.05996 3.985016,0.65028 7.934081,1.53834 11.791311,2.73688 2.28171,0.70899 2.84783,0.95873 5.03857,1.78605 1.87859,0.82926 3.82417,1.64369 5.37698,3.0318 0.75494,0.67486 1.42269,1.57049 1.94488,2.43399 0.24142,0.39923 0.43395,0.82606 0.65092,1.23909 0.4607,0.87414 1.69692,0.22261 1.23622,-0.65153 v 0 c -0.24366,-0.46098 -0.45922,-0.93795 -0.73098,-1.38295 -0.62225,-1.01893 -1.35675,-1.97837 -2.2535,-2.77496 -1.6569,-1.47185 -3.70834,-2.36725 -5.70973,-3.25146 -2.23563,-0.85307 -2.81427,-1.11155 -5.14359,-1.8405 -3.91783,-1.22606 -7.932217,-2.12786 -11.985324,-2.77113 -3.254068,-0.476453 -6.530337,-0.990813 -9.828906,-0.949723 -0.943618,0 -0.943618,1.334483 0,1.334483 z" />
      <path
         style="stroke-width:5.29167;stroke-linecap:round;stroke-linejoin:round;-inkscape-stroke:none;paint-order:stroke fill markers"
         id="path61"
         d="m 83.286657,99.257297 c -0.634267,0.52619 -1.210527,1.117943 -1.768055,1.723353 -1.10767,1.16416 -1.907121,2.54401 -2.605883,3.97873 -0.629759,1.46933 -1.21679,3.00851 -1.400395,4.6093 -0.04509,0.39313 -0.04713,0.79002 -0.07069,1.18503 0.04126,1.84444 0.511424,3.62207 1.441783,5.2211 0.685231,1.17773 1.103506,1.5882 1.980989,2.64396 2.024327,2.1626 4.406915,3.96538 6.978911,5.42823 0.49176,0.2797 0.99862,0.53196 1.497928,0.79793 0.487387,0.23268 0.974773,0.46536 1.462159,0.69804 0.894726,0.4278 1.499727,-0.83754 0.605004,-1.26533 v 0 c -0.468794,-0.22451 -0.937585,-0.44902 -1.406376,-0.67353 -0.476634,-0.25375 -0.960523,-0.49432 -1.429904,-0.76125 -2.437593,-1.3862 -4.699212,-3.08967 -6.630916,-5.12625 -0.794602,-0.9402 -1.188857,-1.32507 -1.813189,-2.36772 -0.826379,-1.38005 -1.251183,-2.91799 -1.308815,-4.52091 0.01617,-0.34215 0.01291,-0.68577 0.04854,-1.02644 0.154252,-1.47478 0.703786,-2.8919 1.27582,-4.24577 0.635837,-1.31969 1.362917,-2.58932 2.376189,-3.66148 0.5182,-0.5736 1.060069,-1.12721 1.64307,-1.63565 0.708057,-0.619553 -0.168119,-1.620893 -0.876175,-1.001343 z" />
      <path
         style="stroke-width:5.29167;stroke-linecap:round;stroke-linejoin:round;-inkscape-stroke:none;paint-order:stroke fill markers"
         id="path62"
         d="m 88.840044,124.81284 c -0.03422,0.43908 -0.04463,0.87969 -0.05091,1.31992 0.0073,0.89035 0.144127,1.77028 0.3296,2.63879 0.235064,1.05056 0.710689,2.01514 1.238189,2.94512 0.649454,1.14556 1.651368,2.01195 2.668841,2.82036 0.917589,0.67838 1.877645,1.30716 2.895682,1.82552 0.208217,0.10601 0.420968,0.20287 0.631452,0.30432 1.223,0.56617 2.502181,0.99093 3.803522,1.33357 1.33724,0.33348 2.70783,0.49269 4.07687,0.62549 1.6134,0.1406 3.23333,0.0649 4.84272,-0.0826 1.55881,-0.1466 3.08096,-0.51021 4.5764,-0.96091 1.52355,-0.47261 2.97706,-1.12922 4.389,-1.86522 0.88983,-0.47571 1.73932,-1.02621 2.47608,-1.71971 0.47404,-0.44621 0.58055,-0.60117 0.99916,-1.09711 0.61584,-0.77747 1.10199,-1.64607 1.48772,-2.55807 0.24269,-0.5738 0.30176,-0.78609 0.49957,-1.37432 0.40221,-1.26878 0.64465,-2.57826 0.81531,-3.89583 0.14376,-1.11359 0.13819,-2.23471 0.0715,-3.35297 -0.0659,-1.02871 -0.22153,-2.04774 -0.41429,-3.05938 -0.16675,-0.88858 -0.40939,-1.75969 -0.69318,-2.61726 -0.29492,-0.84039 -0.75823,-1.60223 -1.2514,-2.33825 -0.27979,-0.41284 -0.5978,-0.79629 -0.92417,-1.17245 -0.62772,-0.72654 -1.6552,0.16119 -1.02748,0.88772 v 0 c 0.28833,0.33531 0.56989,0.67649 0.81826,1.04311 0.42333,0.63366 0.82489,1.28785 1.08742,2.00708 0.26249,0.80145 0.4895,1.61482 0.64294,2.4449 0.17912,0.95482 0.32535,1.91607 0.38645,2.88659 0.0615,1.03122 0.0735,2.06451 -0.0675,3.091 -0.16331,1.22827 -0.38998,2.44927 -0.76442,3.63278 -0.41364,1.23651 -0.90941,2.4524 -1.73313,3.48 -0.3575,0.42845 -0.44529,0.55864 -0.85017,0.94406 -0.65243,0.62109 -1.41149,1.10517 -2.20421,1.52679 -1.33658,0.69332 -2.70974,1.31796 -4.14939,1.76843 -1.40343,0.42872 -2.83495,0.7638 -4.29906,0.90245 -1.52234,0.14082 -3.05405,0.20968 -4.58104,0.0928 -1.29502,-0.12299 -2.5919,-0.27077 -3.85775,-0.58088 -1.216528,-0.3183 -2.409907,-0.72002 -3.554032,-1.24556 -0.192357,-0.0919 -0.386783,-0.17957 -0.577066,-0.27568 -0.946187,-0.4779 -1.834867,-1.06471 -2.689265,-1.68967 -0.879599,-0.69386 -1.76765,-1.42963 -2.335509,-2.41256 -0.461597,-0.80581 -0.882131,-1.64166 -1.094698,-2.55202 -0.167272,-0.76986 -0.290036,-1.54905 -0.312581,-2.33813 0.0013,-0.41255 0.0097,-0.82498 0.02289,-1.23733 0.06709,-0.93928 -1.261251,-1.03416 -1.328344,-0.0949 z" />
      <path
         style="stroke-width:5.29167;stroke-linecap:round;stroke-linejoin:round;-inkscape-stroke:none;paint-order:stroke fill markers"
         id="path67"
         d="m 93.895993,134.70116 c -0.206158,1.36251 -0.351491,2.73319 -0.498811,4.103 -0.29409,2.72042 -0.463582,5.45077 -0.572453,8.18411 -0.05069,1.20809 -0.06371,2.41715 -0.07616,3.62607 -0.01193,0.97567 1.367878,0.99255 1.379813,0.0169 v 0 c 0.01696,-1.19572 0.03416,-2.39158 0.08635,-3.58643 0.112208,-2.70387 0.279353,-5.40476 0.556427,-8.09735 0.139002,-1.37646 0.281826,-2.75259 0.45007,-4.12581 0.08519,-0.93708 -1.240042,-1.05755 -1.325232,-0.12047 z" />
      <path
         style="stroke-width:5.29167;stroke-linecap:round;stroke-linejoin:round;-inkscape-stroke:none;paint-order:stroke fill markers"
         id="path70"
         d="m 10.330038,121.62168 c -0.174792,1.20246 -0.277239,2.41542 -0.3943811,3.62472 -0.177324,1.83736 -0.3349069,3.67644 -0.4584625,5.5182 -0.068388,0.9835 1.3224856,1.08021 1.3908746,0.0967 v 0 c 0.131846,-1.83061 0.29671,-3.65846 0.460593,-5.48644 0.101173,-1.15479 0.196095,-2.3101 0.299769,-3.46466 0.204023,-0.91811 -1.09437,-1.20664 -1.298393,-0.28854 z" />
      <path
         style="stroke-width:5.29167;stroke-linecap:round;stroke-linejoin:round;-inkscape-stroke:none;paint-order:stroke fill markers"
         id="path80"
         d="m 58.00371,129.35986 c -0.845899,-0.90073 -1.687788,-1.80409 -2.504313,-2.73169 -1.58705,-1.77644 -2.745846,-3.76861 -3.809828,-5.88491 -0.580811,-1.25552 -0.30539,-0.63763 -0.828485,-1.85268 -0.38686,-0.90616 -1.668369,-0.35906 -1.281512,0.5471 v 0 c 0.536925,1.26792 0.253395,0.62242 0.853147,1.93537 0.179004,0.35837 0.350327,0.72068 0.537011,1.07511 0.963838,1.82989 2.111452,3.5594 3.486878,5.10723 0.831501,0.92608 1.683475,1.83237 2.567617,2.70861 0.639323,0.6926 1.618808,-0.21154 0.979485,-0.90414 z" />
      <path
         style="stroke-width:5.29167;stroke-linecap:round;stroke-linejoin:round;-inkscape-stroke:none;paint-order:stroke fill markers"
         id="path81"
         d="m 50.172647,118.46465 c 1.020312,0.26705 2.028705,0.57625 3.031558,0.90208 1.46906,0.47189 2.852023,1.16051 4.196961,1.90823 0.723011,0.42774 0.371801,0.21416 1.054283,0.63966 0.819168,0.51401 1.54609,-0.64447 0.726924,-1.15848 v 0 c -0.717992,-0.45328 -0.348067,-0.22557 -1.110514,-0.68193 -1.421538,-0.79754 -2.886933,-1.52575 -4.444447,-2.02153 -1.05305,-0.33629 -2.112354,-0.65975 -3.193508,-0.89433 -0.923689,-0.18473 -1.184947,1.12156 -0.261257,1.3063 z" />
      <path
         style="stroke-width:5.29167;stroke-linecap:round;stroke-linejoin:round;-inkscape-stroke:none;paint-order:stroke fill markers"
         id="path85"
         d="m 66.435592,124.15217 c -0.35419,-0.76472 -0.62325,-1.56887 -0.776246,-2.39902 -0.0581,-0.31525 -0.09066,-0.63467 -0.135982,-0.95201 -0.126071,-1.18233 -0.162333,-2.3711 -0.205047,-3.55845 -0.03527,-0.97911 -1.419955,-0.92923 -1.384678,0.0499 v 0 c 0.04471,1.23933 0.08235,2.4805 0.229531,3.7132 0.05601,0.35624 0.09824,0.71492 0.168037,1.06872 0.180509,0.91502 0.488005,1.80411 0.89681,2.64121 0.398479,0.85388 1.606056,0.29035 1.207575,-0.56354 z" />
      <path
         style="stroke-width:5.29167;stroke-linecap:round;stroke-linejoin:round;-inkscape-stroke:none;paint-order:stroke fill markers"
         id="path86"
         d="m 64.464673,117.26379 c 0.919814,0.50081 1.656546,1.28717 2.394019,2.01705 1.12332,1.14745 2.104036,2.422 3.027291,3.73266 0.11679,0.17463 0.23358,0.34926 0.350369,0.52389 0.532112,0.79905 1.662139,0.0465 1.130028,-0.75252 v 0 c -0.122232,-0.1843 -0.244462,-0.3686 -0.366692,-0.5529 -0.965951,-1.38153 -1.994601,-2.72396 -3.181712,-3.92513 -0.851011,-0.8343 -1.710343,-1.72441 -2.795191,-2.2523 -0.855064,-0.39464 -1.413176,0.8146 -0.558112,1.20925 z" />
      <path
         style="stroke-width:5.29167;stroke-linecap:round;stroke-linejoin:round;-inkscape-stroke:none;paint-order:stroke fill markers"
         id="path88"
         d="m 57.972296,117.10812 c -0.326768,-0.69269 -0.502714,-1.44014 -0.681382,-2.18099 -0.343,-1.38696 -0.470902,-2.80491 -0.508687,-4.22883 -0.02267,-1.28364 0.103499,-2.56187 0.30127,-3.82837 0.11053,-0.62625 0.05191,-0.32341 0.174133,-0.90884 0.196712,-0.93306 -1.122831,-1.21125 -1.319543,-0.27819 v 0 c -0.135025,0.63483 -0.07087,0.30961 -0.191202,0.97591 -0.215201,1.34813 -0.352716,2.70927 -0.327249,4.07649 0.04216,1.52029 0.181083,3.0344 0.553227,4.5139 0.211495,0.85509 0.425892,1.71925 0.836422,2.50504 0.456875,0.82238 1.619885,0.17626 1.163011,-0.64612 z" />
      <path
         style="stroke-width:5.29167;stroke-linecap:round;stroke-linejoin:round;-inkscape-stroke:none;paint-order:stroke fill markers"
         id="path89"
         d="m 57.144666,105.42527 c 1.136549,0.89252 2.144059,1.93576 3.152074,2.96729 1.344946,1.38572 2.577721,2.86903 3.614999,4.49813 0.12827,0.22157 0.25654,0.44315 0.384813,0.66472 0.482597,0.83575 1.664525,0.15325 1.181928,-0.68249 v 0 c -0.137565,-0.2388 -0.27513,-0.47759 -0.412697,-0.71638 -1.087263,-1.71055 -2.368846,-3.27754 -3.784169,-4.72916 -1.075436,-1.09433 -2.152859,-2.20589 -3.398163,-3.11029 -0.7836,-0.5224 -1.522383,0.58578 -0.738785,1.10818 z" />
      <path
         style="stroke-width:5.29167;stroke-linecap:round;stroke-linejoin:round;-inkscape-stroke:none;paint-order:stroke fill markers"
         id="path93"
         d="m 64.742642,111.0872 c -0.08446,-0.13375 -0.01569,0.10441 0.01005,0.0892 0.07279,-0.043 0.168651,-0.17749 0.200049,-0.2123 0.231243,-0.25638 0.261448,-0.27913 0.521565,-0.53893 0.68248,-0.65363 1.437833,-1.22467 2.212417,-1.76355 0.559464,-0.38884 1.158552,-0.71233 1.776931,-0.99585 0.303969,-0.12869 0.154374,-0.0678 0.448572,-0.18317 0.907735,-0.34746 0.416351,-1.63119 -0.491384,-1.28373 v 0 c -0.343676,0.1288 -0.169024,0.0607 -0.523714,0.20494 -0.699561,0.30822 -1.377193,0.66331 -2.010828,1.09307 -0.858766,0.5835 -1.695725,1.20665 -2.427557,1.9469 -0.361768,0.38596 -0.752634,0.77537 -0.968605,1.26782 -0.06275,0.14308 -0.061,0.22378 -0.07888,0.37561 0,0.94142 1.33137,0.94142 1.33137,0 z" />
      <path
         style="stroke-width:5.29167;stroke-linecap:round;stroke-linejoin:round;-inkscape-stroke:none;paint-order:stroke fill markers"
         id="path94"
         d="m 69.39897,107.01706 c -0.187098,0.41557 -0.267705,0.87064 -0.355037,1.31498 -0.157315,0.90434 -0.226538,1.82437 -0.218397,2.7422 0.0019,0.21037 0.01228,0.42058 0.01841,0.63086 0.06053,1.11294 0.253106,2.21235 0.46465,3.30481 0.180497,1.00617 1.603431,0.75091 1.422935,-0.25526 v 0 c -0.169394,-1.02835 -0.329205,-2.0601 -0.400582,-3.10071 -0.0076,-0.18824 -0.0196,-0.37635 -0.02273,-0.56471 -0.0031,-0.1856 5.3e-4,-0.37127 0.0042,-0.55685 0.01339,-0.65575 0.05404,-1.31153 0.13925,-1.96205 0.04652,-0.33462 0.04211,-0.32076 0.09332,-0.62859 0.01677,-0.10082 0.03255,-0.20182 0.05059,-0.30242 0.0033,-0.0182 0.01667,-0.036 0.01244,-0.054 -0.0024,-0.0106 -0.01254,0.0179 -0.01881,0.0269 0.420817,-0.84163 -0.769434,-1.43676 -1.190254,-0.59513 z" />
      <path
         style="stroke-width:5.29167;stroke-linecap:round;stroke-linejoin:round;-inkscape-stroke:none;paint-order:stroke fill markers"
         id="path95"
         d="m 83.486061,91.475834 c 0.456533,-0.02133 0.91059,-0.07833 1.363985,-0.133572 0.833157,-0.106699 1.658036,-0.267682 2.478829,-0.444178 0.433871,-0.09458 0.866492,-0.194746 1.299443,-0.29342 0.957016,-0.200694 0.673192,-1.55412 -0.283824,-1.353426 v 0 c -0.433025,0.08306 -0.86564,0.168225 -1.298491,0.25218 -0.795708,0.151355 -1.593397,0.292547 -2.39364,0.417931 -0.482833,0.07576 -0.969462,0.139533 -1.445358,0.252222 -0.920837,0.197323 -0.641781,1.499584 0.279056,1.302263 z" />
      <path
         style="stroke-width:5.29167;stroke-linecap:round;stroke-linejoin:round;-inkscape-stroke:none;paint-order:stroke fill markers"
         id="path96"
         d="m 31.088956,126.14047 c -0.242856,0.58332 -0.401329,1.19736 -0.568656,1.80527 -0.40215,1.5477 -0.799509,3.09663 -1.195628,4.64589 -0.290737,1.13638 -0.577632,2.27375 -0.861838,3.41178 -0.247888,0.9621 1.112738,1.31267 1.360627,0.35056 v 0 c 0.301191,-1.13392 0.602554,-2.26778 0.897268,-3.40341 0.399806,-1.54647 0.791249,-3.09515 1.156582,-4.65019 0.141777,-0.57397 0.276456,-1.15131 0.466059,-1.71189 0.316787,-0.88701 -0.937626,-1.33501 -1.254414,-0.44801 z" />
      <path
         style="stroke-width:5.29167;stroke-linecap:round;stroke-linejoin:round;-inkscape-stroke:none;paint-order:stroke fill markers"
         id="path98"
         d="m 31.632687,137.39568 c 1.013066,0.4553 2.104745,0.70662 3.179017,0.97174 1.851191,0.4301 3.726039,0.74781 5.606756,1.01592 2.222981,0.28966 4.460885,0.42881 6.700782,0.48489 1.81525,0.0301 3.630681,-0.003 5.44568,-0.0332 1.390552,-0.0277 2.780461,-0.0606 4.171114,-0.0298 1.271392,0.0147 2.526533,0.2095 3.77172,0.44986 1.506704,0.29848 2.949863,0.83102 4.400217,1.32381 1.904264,0.65101 3.807433,1.30531 5.710105,1.96099 2.026563,0.70513 4.063502,1.37885 6.126054,1.97084 2.687743,0.73309 5.437364,1.20032 8.189224,1.61449 1.32084,0.1928 2.649527,0.31674 3.978537,0.43496 0.977543,0.0876 1.101429,-1.29485 0.123886,-1.38245 v 0 c -1.301004,-0.11746 -2.601727,-0.24017 -3.894841,-0.42905 -2.693019,-0.40691 -5.382816,-0.86776 -8.017746,-1.56674 -2.040977,-0.57855 -4.053845,-1.24618 -6.057018,-1.94407 -1.905366,-0.65488 -3.810813,-1.30963 -5.718969,-1.95633 -1.510321,-0.50952 -3.015438,-1.05244 -4.583211,-1.36206 -1.319791,-0.25173 -2.650294,-0.45314 -3.996962,-0.47166 -1.408134,-0.0331 -2.815601,-0.002 -4.223732,0.0227 -1.795973,0.0268 -3.592366,0.0526 -5.388467,0.0201 -2.186987,-0.0583 -4.371615,-0.19552 -6.543458,-0.4668 -1.836999,-0.25944 -3.667082,-0.57311 -5.477007,-0.98305 -0.979215,-0.23454 -1.969791,-0.45878 -2.905866,-0.83673 -0.84261,-0.4213 -1.438427,0.77033 -0.595815,1.19163 z" />
      <path
         style="stroke-width:5.29167;stroke-linecap:round;stroke-linejoin:round;-inkscape-stroke:none;paint-order:stroke fill markers"
         id="path99"
         d="m 117.9161,136.11347 c 0.005,1.52528 -0.12211,3.04383 -0.27749,4.55971 -0.33032,2.9099 -0.94835,5.77449 -1.56174,8.63461 -0.0929,0.414 -0.18574,0.82801 -0.27861,1.24201 -0.22072,0.97279 1.15501,1.28492 1.37573,0.31214 v 0 c 0.0959,-0.4181 0.19185,-0.8362 0.28778,-1.2543 0.63622,-2.91114 1.27332,-5.82913 1.57993,-8.79763 0.14473,-1.56116 0.26911,-3.12715 0.20733,-4.69654 0,-0.94253 -1.33293,-0.94253 -1.33293,0 z" />
    </g>
    <g
       inkscape:groupmode="layer"
       id="proto-wow"
       inkscape:label="wow"
       style="display:none">
      <path
         style="stroke-width:5.29167;stroke-linecap:round;stroke-linejoin:round;-inkscape-stroke:none;paint-order:stroke fill markers"
         id="path135"
         d="m 30.077777,79.570952 c 0.695997,-0.112451 1.3994,-0.171296 2.101395,-0.233127 1.057169,-0.08521 2.122035,-0.106214 3.181345,-0.04463 0.693939,0.04034 0.910407,0.08044 1.599377,0.169111 1.730174,0.299254 3.391016,0.875456 5.009843,1.541235 0.95209,0.431586 1.897401,0.930558 2.651331,1.668775 0.117647,0.115194 0.223438,0.241905 0.335159,0.362857 0.469447,0.553945 0.827172,1.19588 0.975259,1.911294 0.02609,0.126032 0.03901,0.254434 0.05852,0.381651 0.05699,0.469392 -0.02463,0.93123 -0.295225,1.327187 -0.193106,0.282565 -0.30327,0.335868 -0.574381,0.55399 -0.957154,0.597083 -2.040215,0.9397 -3.10679,1.28247 -0.989031,0.316807 -0.540999,1.715508 0.448032,1.398701 v 0 c 1.255591,-0.400947 2.527821,-0.819848 3.604175,-1.605856 0.172127,-0.159661 0.359791,-0.304057 0.516382,-0.478981 0.539295,-0.602435 0.824511,-1.385297 0.83539,-2.189152 0.0024,-0.17078 -0.0223,-0.340865 -0.03345,-0.511297 -0.02879,-0.174765 -0.04847,-0.351276 -0.08635,-0.524295 -0.205782,-0.939734 -0.673722,-1.787292 -1.291781,-2.51805 -0.142697,-0.153726 -0.27836,-0.314294 -0.42809,-0.461177 -0.868987,-0.852466 -1.938917,-1.458151 -3.036628,-1.964079 -0.686758,-0.291997 -0.931172,-0.407061 -1.644367,-0.663323 -1.217282,-0.437391 -2.470947,-0.777629 -3.748863,-0.982091 -0.748268,-0.09528 -0.983877,-0.138499 -1.738595,-0.181505 -1.126181,-0.06417 -2.25874,-0.03612 -3.380844,0.07522 -0.728905,0.08631 -1.461489,0.170566 -2.169649,0.372221 -0.928333,0.154723 -0.709523,1.467583 0.21881,1.31286 z" />
      <path
         style="stroke-width:5.29167;stroke-linecap:round;stroke-linejoin:round;-inkscape-stroke:none;paint-order:stroke fill markers"
         id="path138"
         d="m 54.957169,63.620503 c -0.243628,0.333171 -0.390764,0.719012 -0.52789,1.104699 -0.170478,0.550739 -0.282253,1.118369 -0.329684,1.693023 -0.03409,0.413031 -0.02685,0.571199 -0.02889,0.985249 0.01787,0.750125 0.09758,1.503007 0.296919,2.228228 0.03444,0.125284 0.07661,0.248314 0.114915,0.372472 0.200354,0.553825 0.48356,1.083935 0.895208,1.510623 0.07647,0.07927 0.160898,0.150462 0.241345,0.225694 0.430344,0.362346 0.933858,0.614133 1.454332,0.818017 0.470352,0.178158 0.929056,0.241557 1.428849,0.238431 0.454472,-0.01356 0.881155,-0.147577 1.28858,-0.340053 0.424674,-0.212419 0.729385,-0.568133 1.011835,-0.938386 0.312856,-0.429438 0.535558,-0.912962 0.735052,-1.402763 0.22672,-0.534806 0.365655,-1.097154 0.464892,-1.667622 0.09238,-0.555776 0.08859,-1.118845 0.06361,-1.679595 -0.01822,-0.350864 -0.04976,-0.700805 -0.08395,-1.050406 -0.08533,-0.967682 -1.453841,-0.847006 -1.36851,0.120691 v 0 c 0.02565,0.327988 0.05069,0.656106 0.0642,0.984865 0.0159,0.463397 0.02239,0.928319 -0.0532,1.38771 -0.08008,0.473171 -0.191491,0.939253 -0.378339,1.383205 -0.150728,0.377701 -0.316847,0.751039 -0.54028,1.092307 -0.14747,0.1959 -0.291874,0.406804 -0.506798,0.534302 -0.228269,0.111858 -0.464919,0.189794 -0.7217,0.198483 -0.307715,0.01247 -0.611344,-0.04097 -0.900257,-0.148229 -0.360278,-0.141001 -0.706954,-0.320511 -1.01388,-0.557928 -0.110876,-0.09906 -0.177361,-0.150196 -0.270894,-0.266466 -0.203167,-0.252553 -0.342778,-0.551838 -0.45376,-0.853949 -0.210432,-0.710729 -0.313043,-1.444236 -0.320699,-2.186054 -2.97e-4,-0.768042 0.03598,-1.504433 0.246791,-2.248682 0.05607,-0.198061 0.11537,-0.38688 0.19528,-0.57644 0.01564,-0.03709 0.03204,-0.07386 0.04803,-0.110802 0.01019,-0.02355 0.05097,-0.05523 0.03049,-0.07066 -0.01993,-0.01501 -0.03177,0.03848 -0.04765,0.05772 0.59232,-0.731108 -0.441621,-1.568774 -1.03394,-0.837666 z" />
      <path
         style="stroke-width:5.29167;stroke-linecap:round;stroke-linejoin:round;-inkscape-stroke:none;paint-order:stroke fill markers"
         id="path139"
         d="m 54.181703,61.397693 c 0.473425,-0.133819 0.960583,-0.21209 1.44616,-0.286581 0.547177,-0.07876 1.101143,-0.132649 1.654516,-0.101314 0.404003,0.02289 0.530768,0.05389 0.936429,0.118292 0.875403,0.173776 1.739837,0.41451 2.56094,0.767477 0.152611,0.0656 0.301638,0.13925 0.452456,0.208875 0.528208,0.254069 1.027001,0.563796 1.479235,0.937019 0.268398,0.221507 0.318865,0.280258 0.564126,0.519235 0.239524,0.241961 0.450643,0.508751 0.660693,0.77589 0.612222,0.793901 1.734966,-0.07191 1.122747,-0.865809 v 0 c -0.244859,-0.322879 -0.491983,-0.644591 -0.777465,-0.933548 -0.292928,-0.289986 -0.357188,-0.365834 -0.677908,-0.632764 -0.536575,-0.446582 -1.127508,-0.821899 -1.753219,-1.130874 -0.173609,-0.08108 -0.345146,-0.166746 -0.520824,-0.243234 -0.926407,-0.403352 -1.903852,-0.681771 -2.898505,-0.854684 -0.193845,-0.0263 -0.386935,-0.05894 -0.581536,-0.0789 -0.820528,-0.08416 -1.648119,-0.03428 -2.459921,0.103129 -0.585444,0.107006 -1.184241,0.210405 -1.728203,0.462132 -0.873747,0.367893 -0.353467,1.603555 0.520279,1.235663 z" />
      <path
         style="stroke-width:5.29167;stroke-linecap:round;stroke-linejoin:round;-inkscape-stroke:none;paint-order:stroke fill markers"
         id="path140"
         d="m 56.718271,64.867124 c -0.05757,0.155751 -0.09781,0.317533 -0.139309,0.478153 -0.06906,0.277278 -0.124753,0.557121 -0.165884,0.839834 -0.04614,0.335058 -0.0559,0.673265 -0.05798,1.010985 -0.0032,0.341766 0.02002,0.682526 0.05228,1.022503 0.0322,0.338721 0.125697,0.66446 0.245551,0.981324 0.11266,0.2852 0.268249,0.525967 0.482263,0.744495 0.251465,0.227311 0.570503,0.351346 0.911627,0.337077 0.0746,-0.0031 0.148281,-0.01766 0.222404,-0.02664 0.440701,-0.08666 0.747633,-0.312299 1.056795,-0.624578 0.285262,-0.317673 0.461223,-0.70447 0.599504,-1.103495 0.12047,-0.361053 0.172183,-0.737328 0.187929,-1.116077 0.0099,-0.343113 -0.03405,-0.683005 -0.107781,-1.017215 -0.07058,-0.291781 -0.1862,-0.569335 -0.319167,-0.837504 -0.131556,-0.247463 -0.298345,-0.47322 -0.468063,-0.695335 -0.167628,-0.210425 -0.359318,-0.415491 -0.60875,-0.529126 -0.06747,-0.03074 -0.13968,-0.04981 -0.209521,-0.07471 -0.421445,-0.07012 -0.651459,0.0019 -0.986451,0.252487 -0.739077,0.601576 0.111676,1.646789 0.850756,1.04521 v 0 c -0.08425,0.02972 -0.160384,0.03206 -0.245208,-0.0026 -0.01635,-0.01007 -0.06436,-0.03729 -0.04522,-0.0357 0.05238,0.0044 0.132088,0.137944 0.164164,0.167002 0.119584,0.157703 0.240446,0.315513 0.337643,0.488415 0.08741,0.163351 0.152635,0.338838 0.201136,0.517491 0.04961,0.21988 0.07435,0.444589 0.07043,0.670251 -0.0076,0.244416 -0.04035,0.488065 -0.11595,0.72147 -0.07174,0.209925 -0.154765,0.417014 -0.285625,0.598188 -0.0872,0.09359 -0.171866,0.195308 -0.296868,0.23696 -0.01476,0.04218 0.08277,0.07885 0.02362,0.0568 -0.04838,-0.0034 -0.122911,-0.207334 -0.146872,-0.248299 -0.07538,-0.205483 -0.136174,-0.415264 -0.155316,-0.634522 -0.02769,-0.294725 -0.05045,-0.589885 -0.04801,-0.886201 0.0014,-0.276478 0.0083,-0.553384 0.04255,-0.828059 0.03251,-0.240462 0.07805,-0.478428 0.131563,-0.71512 0.02344,-0.107858 0.05426,-0.216493 0.06818,-0.325471 0.330901,-0.881364 -0.915536,-1.349331 -1.246437,-0.467967 z" />
      <path
         style="stroke-width:5.29167;stroke-linecap:round;stroke-linejoin:round;-inkscape-stroke:none;paint-order:stroke fill markers"
         id="path143"
         d="m 38.894347,80.018169 c 0.06484,0.358831 0.196033,0.703054 0.319559,1.044988 0.197855,0.501142 0.370456,1.010812 0.523211,1.527318 0.06588,0.21798 0.117184,0.439827 0.168627,0.661506 0.214659,0.944332 1.550146,0.64076 1.335487,-0.303572 v 0 c -0.05557,-0.249079 -0.11217,-0.497989 -0.183018,-0.743297 -0.158456,-0.550135 -0.339608,-1.092967 -0.557154,-1.622877 -0.100648,-0.259959 -0.1987,-0.520865 -0.293852,-0.782876 -0.15472,-0.928333 -1.467583,-0.709523 -1.31286,0.21881 z" />
      <path
         style="stroke-width:5.29167;stroke-linecap:round;stroke-linejoin:round;-inkscape-stroke:none;paint-order:stroke fill markers"
         id="path144"
         d="m 41.428669,83.507825 c 0.200639,-0.286324 0.423725,-0.554241 0.657371,-0.814062 0.271478,-0.292756 0.134088,-0.146936 0.412226,-0.437414 0.676532,-0.708843 -0.325922,-1.665605 -1.002456,-0.956763 v 0 c -0.30543,0.320963 -0.155226,0.158758 -0.450665,0.486569 -0.254613,0.299556 -0.504168,0.605229 -0.700907,0.947076 -0.54772,0.76681 0.536712,1.541401 1.084431,0.774594 z" />
      <path
         style="stroke-width:5.29167;stroke-linecap:round;stroke-linejoin:round;-inkscape-stroke:none;paint-order:stroke fill markers"
         id="path147"
         d="m 30.472308,78.995333 c 0.04309,0.391691 0.189529,0.779904 0.319024,1.150453 0.176935,0.467283 0.347771,0.936805 0.519991,1.40584 0.02376,0.06517 0.04751,0.130346 0.07127,0.195519 0.326589,0.938577 1.653937,0.476713 1.327351,-0.461865 v 0 c -0.0227,-0.0683 -0.04538,-0.136604 -0.06806,-0.204904 -0.163189,-0.477763 -0.33193,-0.95373 -0.514966,-1.4243 -0.05758,-0.149447 -0.114464,-0.299161 -0.172374,-0.448482 -0.01418,-0.03656 -0.0955,-0.285924 -0.143525,-0.330713 -0.0028,-0.0026 -0.0056,0.0051 -0.0083,0.0076 -0.07839,-0.940705 -1.40875,-0.829842 -1.330359,0.110863 z" />
      <path
         style="stroke-width:5.29167;stroke-linecap:round;stroke-linejoin:round;-inkscape-stroke:none;paint-order:stroke fill markers"
         id="path148"
         d="m 32.787854,78.855775 c -0.100356,0.232323 -0.190047,0.469136 -0.278603,0.706149 -0.149485,0.401442 -0.281469,0.808964 -0.400556,1.220357 -0.05118,0.178874 -0.09408,0.359889 -0.136538,0.540967 -0.236765,0.952013 1.109583,1.286848 1.346348,0.334838 v 0 c 0.04236,-0.159988 0.08511,-0.319884 0.132477,-0.478486 0.117221,-0.386424 0.246975,-0.768728 0.378489,-1.15049 0.08279,-0.247626 0.170651,-0.495575 0.223221,-0.751724 0.298125,-0.894373 -0.966713,-1.315987 -1.264838,-0.421611 z" />
    </g>
    <g
       inkscape:groupmode="layer"
       id="proto-neutral"
       inkscape:label="neutral"
       style="display:inline">
      <path
         style="stroke-width:5.29167;stroke-linecap:round;stroke-linejoin:round;-inkscape-stroke:none;paint-order:stroke fill markers"
         id="path156"
         d="m 30.575223,82.360667 c 0.60815,0.691956 1.416431,1.176374 2.190197,1.658651 1.552877,0.890921 3.225607,1.599507 4.975085,1.999488 0.422656,0.09663 0.852294,0.159676 1.27844,0.239514 0.486021,0.04301 0.970608,0.107707 1.458063,0.129043 2.011331,0.08803 4.10174,-0.149371 6.070465,-0.554228 0.464063,-0.09543 0.922822,-0.21504 1.384234,-0.322559 0.422529,-0.117237 0.845061,-0.234471 1.267592,-0.351708 1.135946,-0.303966 0.706073,-1.91044 -0.429874,-1.606473 v 0 c -0.40387,0.103899 -0.807741,0.207798 -1.211611,0.3117 -0.435893,0.09624 -0.869675,0.202594 -1.307674,0.288737 -1.854928,0.36481 -3.758457,0.582806 -5.651167,0.551194 -0.430636,-0.0072 -0.860126,-0.04672 -1.29019,-0.07008 -0.383548,-0.06464 -0.770014,-0.113855 -1.150644,-0.193913 -1.607738,-0.338153 -3.16258,-0.977831 -4.616953,-1.731507 -0.683342,-0.381699 -1.376349,-0.761609 -1.984229,-1.259467 -0.644607,-0.694193 -1.626341,0.217419 -0.981734,0.911609 z" />
      <path
         style="stroke-width:5.29167;stroke-linecap:round;stroke-linejoin:round;-inkscape-stroke:none;paint-order:stroke fill markers"
         id="path157"
         d="m 56.274263,64.688044 c -0.390636,0.316338 -0.675677,0.727882 -0.934466,1.153125 -0.467143,0.807067 -0.594741,1.720639 -0.67732,2.632866 -0.0323,0.748893 0.0067,1.507363 0.222977,2.229438 0.03913,0.130659 0.08948,0.257693 0.134221,0.386543 0.325612,0.928301 1.638429,0.467815 1.312817,-0.460486 v 0 c -0.237606,-0.667751 -0.30525,-1.322491 -0.266337,-2.03081 0.06123,-0.70453 0.127071,-1.419373 0.466841,-2.054579 0.168492,-0.299784 0.359513,-0.580467 0.594074,-0.832726 0.723633,-0.603028 -0.129177,-1.626396 -0.852807,-1.023371 z" />
      <path
         style="stroke-width:5.29167;stroke-linecap:round;stroke-linejoin:round;-inkscape-stroke:none;paint-order:stroke fill markers"
         id="path159"
         d="m 56.13096,62.27116 c 0.763627,-0.174734 1.547609,-0.158912 2.3256,-0.147093 1.362633,0.03019 2.696636,0.297953 4.008935,0.645758 0.761188,0.222599 0.387715,0.110067 1.120592,0.337013 0.966428,0.306986 1.400569,-1.059749 0.434142,-1.366734 v 0 c -0.766379,-0.24932 -0.373708,-0.125661 -1.178327,-0.369988 -1.431158,-0.39002 -2.889541,-0.686541 -4.379431,-0.702435 -0.936715,0.0056 -1.898142,0.01643 -2.787653,0.349094 -0.886984,0.322541 -0.430842,1.576925 0.456142,1.254385 z" />
      <path
         style="stroke-width:5.29167;stroke-linecap:round;stroke-linejoin:round;-inkscape-stroke:none;paint-order:stroke fill markers"
         id="path160"
         d="m 57.33768,66.893866 c -0.185486,0.255968 -0.270433,0.565393 -0.349838,0.866753 -0.103862,0.430179 -0.165261,0.868784 -0.200398,1.309466 -0.0249,0.41385 0.02815,0.839097 0.222785,1.210879 0.04042,0.0772 0.09167,0.14823 0.137504,0.222345 0.254061,0.336031 0.606533,0.584851 1.018209,0.687567 0.08705,0.02172 0.176744,0.03102 0.265115,0.04653 0.472469,0.03094 0.925833,-0.09448 1.294405,-0.398663 0.07691,-0.06347 0.142944,-0.139084 0.214416,-0.208627 0.376846,-0.423457 0.577096,-0.94914 0.728096,-1.486479 0.115597,-0.424572 0.153935,-0.86087 0.140026,-1.299099 -0.01818,-0.492953 -0.224446,-0.842589 -0.543412,-1.199004 -0.285231,-0.298297 -0.651312,-0.460762 -1.043249,-0.564349 -0.250508,-0.06394 -0.500542,-0.04513 -0.751634,-0.0021 -0.941742,0.178204 -0.689721,1.51003 0.252021,1.331825 v 0 c 0.05298,-0.01482 0.101311,-0.02754 0.157014,-0.01378 0.136716,0.03446 0.274765,0.07394 0.38195,0.170627 0.0285,0.02893 0.162065,0.165182 0.170175,0.206722 0.0072,0.03672 0.0065,0.07455 0.0097,0.111823 0.0085,0.299472 -0.0264,0.59621 -0.106799,0.885508 -0.08699,0.315709 -0.190786,0.63423 -0.385768,0.90161 -0.09863,0.125687 -0.157956,0.190651 -0.32599,0.208372 -0.122809,0.0035 -0.243444,-0.04445 -0.331156,-0.130159 -0.134395,-0.154498 -0.138641,-0.374351 -0.128698,-0.568642 0.03128,-0.36821 0.08322,-0.734521 0.160258,-1.0961 0.03026,-0.138978 0.07104,-0.281636 0.0997,-0.418312 0.547722,-0.766807 -0.53671,-1.541401 -1.084432,-0.774594 z" />
      <path
         style="stroke-width:5.29167;stroke-linecap:round;stroke-linejoin:round;-inkscape-stroke:none;paint-order:stroke fill markers"
         id="path161"
         d="m 57.503753,65.405811 c 0.611431,0.06191 1.220462,0.145116 1.831089,0.214688 0.479083,0.05323 0.959196,0.09617 1.439272,0.139187 0.97758,0.08956 1.104231,-1.29295 0.126651,-1.382506 v 0 c -0.47262,-0.04426 -0.945216,-0.08877 -1.417585,-0.135652 -0.621879,-0.06288 -1.243732,-0.142351 -1.868564,-0.166077 -0.940705,-0.07839 -1.051568,1.251966 -0.110863,1.33036 z" />
      <path
         style="stroke-width:5.29167;stroke-linecap:round;stroke-linejoin:round;-inkscape-stroke:none;paint-order:stroke fill markers"
         id="path163"
         d="m 44.278266,58.247119 c 0.188307,0.111114 0.333801,0.273087 0.475785,0.436165 0.135442,0.170778 0.06894,0.08384 0.199424,0.260866 0.578162,0.784347 1.687393,-0.0333 1.109229,-0.817644 v 0 c -0.180314,-0.244608 -0.08607,-0.122828 -0.2832,-0.364972 -0.260731,-0.284154 -0.542359,-0.557686 -0.903137,-0.710618 -0.845843,-0.422923 -1.443945,0.773282 -0.598101,1.196203 z" />
    </g>
    <g
       inkscape:groupmode="layer"
       id="proto-annoy"
       inkscape:label="annoy"
       style="display:none">
      <path
         style="stroke-width:5.29167;stroke-linecap:round;stroke-linejoin:round;-inkscape-stroke:none;paint-order:stroke fill markers"
         id="path14"
         d="m 32.832869,84.881615 c 0.710512,0.01384 1.416785,0.09286 2.121908,0.175279 1.745199,0.215082 3.486673,0.459007 5.229775,0.69025 1.267867,0.170865 2.537288,0.3297 3.807463,0.482349 0.991192,0.126299 1.169804,-1.275459 0.178614,-1.401757 v 0 c -1.264845,-0.170384 -2.529371,-0.343109 -3.793675,-0.517473 -1.757362,-0.237503 -3.514301,-0.482676 -5.278522,-0.664424 -0.752787,-0.06592 -1.509104,-0.138213 -2.265563,-0.09525 -0.941176,0 -0.941176,1.331026 0,1.331026 z" />
      <path
         style="stroke-width:5.29167;stroke-linecap:round;stroke-linejoin:round;-inkscape-stroke:none;paint-order:stroke fill markers"
         id="path63"
         d="m 43.562672,59.004687 c -0.01945,0.0011 -0.04143,-0.0067 -0.05836,0.0029 -0.0092,0.0052 0.01886,0.0097 0.02849,0.01408 0.02201,0.01011 0.04426,0.01966 0.06641,0.02947 0.13321,0.05893 0.260049,0.123187 0.387462,0.193947 0.448304,0.248682 0.850672,0.566949 1.235109,0.903613 0.540671,0.483219 1.016929,1.030639 1.469369,1.595562 0.348644,0.430773 0.651197,0.893358 0.897403,1.389383 0.101518,0.236259 0.05381,0.11879 0.143515,0.35225 0.341403,0.904714 1.620856,0.421899 1.279456,-0.482812 v 0 c -0.115519,-0.310443 -0.05299,-0.152566 -0.188611,-0.473223 -0.108489,-0.22438 -0.137202,-0.292891 -0.262519,-0.513506 -0.227634,-0.400743 -0.495245,-0.777073 -0.775094,-1.142656 -0.504381,-0.637672 -1.041178,-1.251029 -1.658872,-1.782739 -0.469003,-0.393178 -0.955852,-0.768683 -1.500724,-1.052491 -0.334137,-0.171042 -0.68139,-0.344638 -1.063033,-0.364463 -0.940932,0 -0.940932,1.330679 0,1.330679 z" />
      <path
         style="stroke-width:5.29167;stroke-linecap:round;stroke-linejoin:round;-inkscape-stroke:none;paint-order:stroke fill markers"
         id="path64"
         d="m 40.814792,62.338303 c 0.388829,0.243906 0.810842,0.427625 1.231344,0.608534 0.849077,0.361722 1.744507,0.584428 2.644281,0.776203 0.970489,0.212555 1.271087,-1.15992 0.300601,-1.372476 v 0 C 44.17381,62.166435 43.358885,61.964148 42.579703,61.651003 42.171141,61.491182 41.767821,61.32034 41.372904,61.12906 40.51784,60.734415 39.959727,61.943659 40.814792,62.338303 Z" />
      <path
         style="stroke-width:5.29167;stroke-linecap:round;stroke-linejoin:round;-inkscape-stroke:none;paint-order:stroke fill markers"
         id="path65"
         d="m 54.910717,65.379565 c 0.353597,-0.146717 0.731041,-0.216987 1.104842,-0.290597 1.118923,-0.183936 2.249665,-0.254204 3.382224,-0.258011 1.18468,0.01791 2.359771,0.179885 3.521544,0.402079 0.657264,0.131403 1.303504,0.307618 1.94329,0.505897 0.916165,0.289356 1.325375,-1.006295 0.409213,-1.295651 v 0 c -0.687219,-0.220851 -1.381819,-0.417616 -2.089225,-0.563902 -1.249545,-0.246776 -2.514769,-0.422084 -3.79068,-0.436596 -1.224211,0.0061 -2.448197,0.0823 -3.653049,0.312134 -0.528092,0.114384 -1.071282,0.224917 -1.542947,0.501409 -0.794247,0.505431 -0.07946,1.628669 0.714788,1.123238 z" />
      <path
         style="stroke-width:5.29167;stroke-linecap:round;stroke-linejoin:round;-inkscape-stroke:none;paint-order:stroke fill markers"
         id="path66"
         d="m 56.147104,67.345628 c 0.350247,0.552254 0.897273,0.931098 1.430641,1.288573 1.038797,0.657654 2.229279,0.964131 3.41707,1.221973 0.780672,0.157504 1.573054,0.234839 2.365587,0.300342 0.970515,0.0827 1.087464,-1.289823 0.116948,-1.372518 v 0 c -0.733184,-0.06446 -1.466429,-0.137769 -2.189048,-0.282644 -1.021086,-0.220686 -2.053971,-0.460793 -2.957346,-1.009036 -0.380762,-0.246279 -0.780479,-0.496702 -1.060614,-0.861478 -0.505431,-0.79425 -1.628669,-0.07946 -1.123238,0.714788 z" />
    </g>
    <g
       inkscape:groupmode="layer"
       id="proto-nice"
       inkscape:label="nice"
       style="display:none">
      <path
         style="stroke-width:5.29167;stroke-linecap:round;stroke-linejoin:round;-inkscape-stroke:none;paint-order:stroke fill markers"
         id="path117"
         d="m 48.897044,81.608506 c 0.02529,0.4993 5.29e-4,1.004339 -0.117078,1.492392 -0.03891,0.161634 -0.09594,0.318363 -0.143905,0.477544 -0.345969,0.959784 -0.893339,1.839831 -1.618323,2.560826 -0.150667,0.149836 -0.31718,0.282842 -0.475769,0.424264 -0.53885,0.417709 -1.116023,0.802725 -1.7522,1.058294 -0.826966,0.332213 -1.719387,0.485857 -2.588062,0.659696 -1.072856,0.174522 -2.154748,0.292727 -3.239021,0.36734 -0.367078,0.02527 -0.734404,0.0506 -1.102249,0.05924 -0.946206,0.0222 -1.251902,-0.01691 -2.194182,-0.07532 -4.614234,-0.906289 0.10873,2.797361 -0.09959,1.622973 0.3956,0.02405 0.790657,0.06 1.186802,0.07212 0.833067,0.02551 1.517676,-0.0021 2.347042,-0.0598 1.149117,-0.07981 2.295017,-0.214207 3.427674,-0.425617 0.791917,-0.172228 1.265044,-0.253368 2.033275,-0.505304 1.104199,-0.362114 2.104102,-0.910598 2.998534,-1.65246 0.194731,-0.179393 0.398542,-0.349407 0.584192,-0.538181 0.881898,-0.896753 1.540692,-1.987831 1.920375,-3.185777 0.05197,-0.214244 0.114403,-0.426212 0.155903,-0.642726 0.123708,-0.645443 0.137218,-1.322144 1.11e-4,-1.965671 -0.181136,-0.935874 -1.504662,-0.679707 -1.323525,0.256167 z"
         sodipodi:nodetypes="cccscscsccccccscscscc" />
      <path
         style="stroke-width:5.29167;stroke-linecap:round;stroke-linejoin:round;-inkscape-stroke:none;paint-order:stroke fill markers"
         id="path119"
         d="m 54.321638,62.011668 c 0.405177,0.03282 0.813027,0.02381 1.219247,0.02439 0.784818,-0.01132 1.565479,0.06523 2.336359,0.20719 0.954555,0.216638 1.819997,0.689216 2.68175,1.136441 0.769358,0.417235 1.521185,0.865709 2.279618,1.302279 0.884891,0.521409 1.622272,-0.730017 0.737381,-1.251423 v 0 c -0.771692,-0.465357 -1.542211,-0.933389 -2.336274,-1.360109 -0.990668,-0.51598 -2.001628,-1.021207 -3.105038,-1.245098 -0.154094,-0.02764 -0.307581,-0.0589 -0.46228,-0.0829 -0.711719,-0.110453 -1.434529,-0.141714 -2.153785,-0.118677 -0.399169,0.01312 -0.798973,0.02323 -1.196978,0.05768 -0.940623,0 -0.940623,1.330243 0,1.330243 z" />
      <path
         style="stroke-width:5.29167;stroke-linecap:round;stroke-linejoin:round;-inkscape-stroke:none;paint-order:stroke fill markers"
         id="path121"
         d="m 56.144073,62.480257 c -0.310641,0.432834 -0.449137,0.956979 -0.585631,1.464288 -0.179869,0.695634 -0.279023,1.407638 -0.343342,2.122144 -0.04391,0.485797 -0.02761,0.973739 0.05091,1.455153 0.05085,0.31184 0.08748,0.434315 0.162817,0.740083 0.111608,0.426791 0.264581,0.840324 0.428453,1.249231 0.359355,0.921895 1.663112,0.413688 1.303757,-0.508206 v 0 c -0.134466,-0.356542 -0.26065,-0.716328 -0.35785,-1.085145 -0.143993,-0.56411 -0.254693,-1.134834 -0.180145,-1.719775 0.06207,-0.64016 0.149837,-1.278089 0.300769,-1.904108 0.05992,-0.249272 0.123778,-0.495226 0.201163,-0.739698 0.01539,-0.04861 0.03192,-0.09684 0.04789,-0.145266 0.01343,-0.03359 0.02912,-0.06637 0.04032,-0.100765 0.0026,-0.0077 3.27e-4,-0.01617 4.4e-4,-0.02426 0.568281,-0.75626 -0.501234,-1.559933 -1.069515,-0.803671 z" />
      <path
         style="stroke-width:5.29167;stroke-linecap:round;stroke-linejoin:round;-inkscape-stroke:none;paint-order:stroke fill markers"
         id="path122"
         d="m 59.846379,63.665653 c 0.108652,0.321301 0.181904,0.651254 0.247154,0.98371 0.140049,0.791223 0.143787,1.593499 0.118376,2.393621 -0.03174,0.790495 -0.128255,1.576184 -0.255654,2.356374 -0.01783,0.09683 -0.03564,0.193651 -0.05347,0.290478 -0.192862,0.976854 1.188615,1.249606 1.38148,0.272752 v 0 c 0.02224,-0.106084 0.04448,-0.212169 0.06672,-0.318254 0.158217,-0.845913 0.280416,-1.699458 0.313189,-2.560517 0.02282,-0.918702 -1.43e-4,-1.84056 -0.193615,-2.743013 -0.09461,-0.382921 -0.194241,-0.766931 -0.369144,-1.122643 -0.316426,-0.887441 -1.571456,-0.439949 -1.25503,0.447492 z" />
      <path
         style="stroke-width:5.29167;stroke-linecap:round;stroke-linejoin:round;-inkscape-stroke:none;paint-order:stroke fill markers"
         id="path129"
         d="m 41.984548,86.246863 c 0.485696,0.182692 1.004991,0.113607 1.507506,0.05838 1.011844,-0.156758 2.0095,-0.392023 3.007172,-0.619617 0.994995,-0.224031 0.67817,-1.631165 -0.316825,-1.407137 v 0 c -0.958625,0.212987 -1.915427,0.434301 -2.875923,0.638728 -0.277262,0.04519 -0.577336,0.119166 -0.854014,0.08187 -0.882311,-0.330864 -1.350224,0.916908 -0.467916,1.247775 z" />
      <path
         style="stroke-width:5.29167;stroke-linecap:round;stroke-linejoin:round;-inkscape-stroke:none;paint-order:stroke fill markers"
         id="path130"
         d="m 31.223722,85.539185 c 0.137078,0.04215 0.273323,0.08705 0.410951,0.127365 0.362773,0.106264 0.533392,0.145542 0.902129,0.238593 0.837829,0.20529 1.687988,0.351991 2.541389,0.474157 0.518715,0.07121 1.03877,0.132911 1.560978,0.171471 0.172722,0.01252 0.345789,0.01752 0.518861,0.02175 1.013063,0.0543 1.089858,-1.378386 0.0768,-1.432689 v 0 c -0.145986,-0.01312 -0.291777,-0.02805 -0.436684,-0.05059 -0.484386,-0.07218 -0.963073,-0.174771 -1.441757,-0.277612 -0.811691,-0.173161 -1.623547,-0.345707 -2.432129,-0.532995 -0.198803,-0.04446 -0.67264,-0.15078 -0.875266,-0.194693 -0.131916,-0.02859 -0.264625,-0.05357 -0.396147,-0.08393 -1.270844,-0.309741 -1.320628,1.32578 -0.429125,1.539173 z"
         sodipodi:nodetypes="csccccsscccscc" />
      <path
         style="stroke-width:5.29167;stroke-linecap:round;stroke-linejoin:round;-inkscape-stroke:none;paint-order:stroke fill markers"
         id="path132"
         d="m 42.735439,85.215435 c -0.06485,-0.136684 -0.147045,-0.264194 -0.232601,-0.388617 -0.218601,-0.29772 -0.553548,-0.502573 -0.937347,-0.456891 -0.103413,0.0123 -0.200208,0.05744 -0.30031,0.08616 -0.08133,0.05257 -0.169527,0.0958 -0.243996,0.15771 -0.362136,0.301064 -0.506974,0.781074 -0.648314,1.210305 -0.164679,0.593423 -0.367935,1.174138 -0.582621,1.750946 -0.11549,0.308234 -0.237916,0.613794 -0.35802,0.920242 -0.380643,0.950145 0.963067,1.488456 1.34371,0.538311 v 0 c 0.129696,-0.31694 0.259466,-0.633897 0.379428,-0.954697 0.220824,-0.603025 0.419627,-1.213363 0.574908,-1.83693 0.05937,-0.211011 0.05267,-0.194273 0.113803,-0.387448 0.01188,-0.03752 0.02529,-0.07455 0.03675,-0.112197 0.0053,-0.01733 0.01749,-0.03503 0.01339,-0.05267 -0.0075,-0.03221 -0.140589,0.07595 -0.0973,0.01945 -0.121412,0.01294 -0.147957,0.02847 -0.269965,-0.01281 -0.0584,-0.01976 -0.107683,-0.04902 -0.146566,-0.09484 -0.0038,-0.0044 -0.01246,-0.01805 -0.007,-0.01606 0.0091,0.0033 0.01349,0.01392 0.02024,0.0209 0.04007,0.0548 0.106653,0.17738 0.152347,0.215141 0.0028,0.0024 -7.94e-4,-0.0071 -0.0013,-0.01058 0.421024,0.842044 1.611855,0.246628 1.190831,-0.595416 z" />
      <path
         style="stroke-width:5.29167;stroke-linecap:round;stroke-linejoin:round;-inkscape-stroke:none;paint-order:stroke fill markers"
         id="path133"
         d="m 38.094901,85.861759 c 0.02508,-0.05632 0.0038,5.3e-4 0.01881,-0.0084 0.0019,-0.0011 0.110815,-0.117105 0.08027,-0.09399 -0.06613,0.05003 -0.12387,0.110273 -0.185804,0.165412 -0.212463,-0.0042 -0.424926,-0.0084 -0.637389,-0.01265 -0.0099,0.01045 -0.03307,0.0173 -0.02974,0.03132 0.01582,0.06649 0.05459,0.125322 0.08192,0.187967 0.04026,0.09229 0.08074,0.184494 0.120854,0.276855 0.221057,0.509016 0.06245,0.151091 0.306581,0.695058 0.17376,0.396965 0.388789,0.772956 0.604004,1.148228 0.516517,0.908537 1.801384,0.178073 1.284867,-0.730464 v 0 C 39.54694,87.17949 39.351193,86.839154 39.188112,86.482162 39.02271,86.1379 38.86741,85.78612 38.679778,85.453076 c -0.06241,-0.110781 -0.312809,-0.541414 -0.43044,-0.592122 -0.254603,-0.109754 -0.543912,-0.10787 -0.815869,-0.161806 -0.105574,0.0756 -0.21636,0.14441 -0.316725,0.226804 -0.02754,0.02262 -0.04321,0.05669 -0.06393,0.08569 -0.07228,0.101182 -0.141552,0.206986 -0.182219,0.325403 -0.371017,0.865711 0.853281,1.390412 1.224301,0.524701 z" />
      <path
         style="stroke-width:5.29167;stroke-linecap:round;stroke-linejoin:round;-inkscape-stroke:none;paint-order:stroke fill markers"
         id="path134"
         d="m 30.635233,84.226084 c -0.05462,0.03689 -0.101613,0.09358 -0.143682,0.141605 -0.07486,0.08546 -0.113498,0.135559 -0.178797,0.230934 -0.03311,0.04835 -0.06403,0.09816 -0.09604,0.147246 -0.220657,0.339492 -0.388697,0.708787 -0.551011,1.078608 -0.09031,0.209791 -0.04677,0.106534 -0.130781,0.309695 -0.489688,0.989869 0.910201,1.682393 1.399887,0.692523 v 0 c 0.10786,-0.184481 0.05297,-0.08965 0.164542,-0.284565 0.199831,-0.353364 0.395059,-0.711102 0.536871,-1.092523 0.03373,-0.09492 0.07507,-0.200871 0.09772,-0.300249 0.007,-0.03072 0.01431,-0.06215 0.01297,-0.09363 -0.0011,-0.02254 -0.03209,-0.03199 -0.02725,-0.05505 0.547719,-0.76681 -0.53671,-1.541404 -1.084432,-0.774594 z" />
      <path
         style="stroke-width:5.29167;stroke-linecap:round;stroke-linejoin:round;-inkscape-stroke:none;paint-order:stroke fill markers"
         id="path165"
         d="m 28.091452,81.160186 c 1.044454,0.509317 2.175973,0.817954 3.287152,1.145518 1.184979,0.332486 2.382165,0.627502 3.600154,0.811136 0.837729,0.126302 1.214157,0.151606 2.057421,0.233516 1.924036,0.177332 3.854847,0.169026 5.782413,0.0745 1.406027,-0.08725 2.810073,-0.26041 4.187063,-0.5623 0.248401,-0.05446 0.494546,-0.118734 0.741817,-0.178102 1.211419,-0.300966 2.379597,-0.743217 3.527423,-1.228283 0.140459,-0.06133 0.280921,-0.122668 0.42138,-0.184002 0.917644,-0.390998 0.364689,-1.68874 -0.552955,-1.297741 v 0 c -0.136874,0.05684 -0.273748,0.113673 -0.410623,0.170508 -1.084037,0.437928 -2.184842,0.840028 -3.322762,1.116042 -1.531395,0.358235 -3.088809,0.594539 -4.661071,0.673846 -1.856457,0.08255 -3.71579,0.08229 -5.567966,-0.0923 -0.811033,-0.07686 -1.151914,-0.100054 -1.956686,-0.212373 -1.163656,-0.162404 -2.305241,-0.438123 -3.43974,-0.739809 -1.024784,-0.28547 -2.046494,-0.581882 -3.059242,-0.907172 -0.832273,-0.448148 -1.466051,0.728867 -0.633778,1.177013 z" />
      <path
         style="stroke-width:5.29167;stroke-linecap:round;stroke-linejoin:round;-inkscape-stroke:none;paint-order:stroke fill markers"
         id="path170"
         d="m 56.543635,70.810564 c -0.007,0.0083 -0.03192,0.02405 -0.02106,0.02503 0.106355,0.0095 0.21095,-0.03378 0.317093,-0.04538 0.09558,-0.01045 0.191309,-0.02006 0.287276,-0.02601 0.354418,-0.02193 0.387189,-0.01249 0.759265,-0.0032 1.079685,0.06893 2.139553,0.301644 3.191989,0.540174 0.963493,0.22175 1.277096,-1.140833 0.313605,-1.362583 v 0 c -1.14813,-0.268134 -2.307675,-0.522806 -3.490407,-0.563878 -0.677519,2.65e-4 -1.386581,0.0046 -2.018763,0.279104 -0.817954,0.4674 -0.156948,1.624161 0.661003,1.156758 z" />
    </g>
</svg>
