<?xml version="1.0" encoding="UTF-8" standalone="no"?>
<!-- Created with Inkscape (http://www.inkscape.org/) -->

<svg
   width="164.4738mm"
   height="165.58896mm"
   viewBox="0 0 164.4738 165.58896"
   version="1.1"
   id="svg1"
   xml:space="preserve"
   inkscape:version="1.3.2 (091e20e, 2023-11-25, custom)"
   sodipodi:docname="snowflake.svg"
   xmlns:inkscape="http://www.inkscape.org/namespaces/inkscape"
   xmlns:sodipodi="http://sodipodi.sourceforge.net/DTD/sodipodi-0.dtd"
   xmlns="http://www.w3.org/2000/svg"
   xmlns:svg="http://www.w3.org/2000/svg"><sodipodi:namedview
     id="namedview1"
     pagecolor="#ffffff"
     bordercolor="#000000"
     borderopacity="0.25"
     inkscape:showpageshadow="2"
     inkscape:pageopacity="0.0"
     inkscape:pagecheckerboard="0"
     inkscape:deskcolor="#d1d1d1"
     inkscape:document-units="mm"
     inkscape:zoom="0.75098906"
     inkscape:cx="476.03889"
     inkscape:cy="282.96018"
     inkscape:window-width="1920"
     inkscape:window-height="1051"
     inkscape:window-x="-9"
     inkscape:window-y="-9"
     inkscape:window-maximized="1"
     inkscape:current-layer="layer1" /><defs
     id="defs1" /><g
     inkscape:label="Layer 1"
     inkscape:groupmode="layer"
     id="layer1"
     transform="translate(176.91601,-34.862097)"><path
       style="fill:#00aad4;stroke:#ffffff"
       d="m -128.98574,176.23898 5.64928,-5.8049 c 3.10711,-3.1927 5.95764,-6.19621 6.33452,-6.67447 l 0.68522,-0.86958 -0.87064,-2.96688 c -1.33883,-4.56232 -2.80244,-9.62329 -3.45956,-11.96272 -0.327,-1.16417 -0.6658,-2.20102 -0.75288,-2.30412 -0.1683,-0.19924 -15.0272,-3.987 -16.82962,-4.29012 l -1.06535,-0.17917 -3.69715,3.86585 c -2.03344,2.12621 -4.94731,5.17496 -6.47528,6.775 l -2.77813,2.90916 -5.68854,-1.42305 c -3.1287,-0.78267 -7.33607,-1.82869 -9.34972,-2.32449 -2.5508,-0.62805 -3.7357,-1.04069 -3.9069,-1.36058 -0.22049,-0.41199 -1.84349,-5.7466 -2.35904,-7.7539 -0.11213,-0.43656 -0.64537,-2.28203 -1.18497,-4.10104 -1.34513,-4.53442 -1.75287,-6.1296 -1.66378,-6.50893 0.0417,-0.17766 2.81431,-3.14571 6.16129,-6.59568 3.34698,-3.44996 6.12169,-6.5056 6.31319,-6.66713 0.40603,-0.34247 0.72189,-1.00231 6.38681,0.56071 2.16549,0.59748 4.62359,1.13851 5.42396,1.35068 0.80036,0.21217 2.79678,0.71011 4.43648,1.10652 l 2.98128,0.72076 4.17975,-4.35273 c 2.29886,-2.39401 5.09187,-5.30524 6.20669,-6.46941 1.33338,-1.3924 2.0291,-2.32923 2.03324,-2.73789 0.004,-0.34167 -0.35017,-1.82995 -0.78585,-3.30729 -0.85076,-2.88478 -2.80233,-9.580863 -3.57672,-12.272203 -0.28366,-0.985844 -0.64428,-1.697133 -0.89702,-1.769277 -0.23245,-0.06636 -2.68483,-0.668033 -5.44973,-1.337063 -10.60325,-2.565697 -11.91559,-2.901292 -12.22344,-3.125816 -0.31406,-0.229043 -0.42606,-0.53612 -1.22701,-3.364006 -0.22669,-0.800365 -0.75972,-2.645834 -1.18452,-4.101042 -0.4248,-1.455208 -1.16216,-4.015052 -1.63858,-5.688542 -0.47642,-1.673489 -1.02813,-3.552885 -1.22602,-4.176434 -0.19789,-0.623549 -0.3598,-1.170878 -0.3598,-1.216287 0,-0.162339 1.14663,-1.403325 4.30703,-4.661445 1.76445,-1.819011 4.56551,-4.706276 6.22457,-6.416146 1.65906,-1.70987 3.04882,-3.108854 3.08836,-3.108854 0.0395,0 4.08512,1.00458 8.99018,2.2324 4.90506,1.227821 9.0696,2.174338 9.25454,2.103371 l 0.94281,1.019282 c -8.3e-4,0.332275 0.46596,2.041756 1.86112,6.815784 0.404,1.382448 1.23642,4.255805 1.84982,6.385239 0.61339,2.129433 1.19041,3.977099 1.28227,4.105925 0.0918,0.128825 3.26263,0.996482 7.04617,1.928128 3.78354,0.931645 7.7126,1.905316 8.73125,2.163712 l 1.85208,0.469811 2.63387,-2.697762 c 1.44862,-1.483769 4.333249,-4.44843 6.41028,-6.588136 l 3.776419,-3.890374 -0.384435,-1.269001 c -0.62693,-2.069462 -1.917339,-6.519278 -2.055992,-7.089834 -0.07073,-0.291041 -0.569965,-2.017448 -1.109417,-3.836458 -1.754391,-5.915729 -1.747872,-5.881944 -1.250723,-6.482292 0.451261,-0.544934 5.500969,-5.781229 10.379601,-10.763138 l 2.76707,-2.825638 5.68854,1.442864 c 5.55092,1.407957 7.2649,1.826959 10.64948,2.603386 2.50819,0.575381 2.49577,0.56527 3.05234,2.48577 0.28135,0.970799 0.90204,3.134308 1.37933,4.807798 l 3.27281,12.7 c -0.28774,0 -4.23832,3.934851 -10.62563,10.583333 -1.18834,1.236927 -2.1632,2.468858 -2.16635,2.737623 -0.003,0.268765 0.51341,2.233296 1.14791,4.365625 0.6345,2.132328 1.54415,5.246179 2.02145,6.919669 0.47729,1.67349 1.02972,3.552885 1.22761,4.176434 0.19789,0.623549 0.3598,1.282615 0.3598,1.46459 0,0.294883 5.36195,1.735228 15.50771,4.165732 l 2.41083,0.577533 3.7006,-3.80308 c 2.03534,-2.091696 4.99859,-5.148631 6.585,-6.793189 l 2.8844,-2.990104 4.36563,1.086535 c 2.40109,0.597595 6.62715,1.647628 9.39125,2.333406 l 5.02562,1.246871 0.4402,1.318157 c 0.24211,0.724986 0.62341,1.973 0.84735,2.773365 0.22393,0.800365 0.75471,2.645833 1.17951,4.101042 0.4248,1.455207 1.15741,4.015047 1.62803,5.688537 0.47062,1.673489 0.9628,3.316209 1.09373,3.650469 0.13093,0.33427 0.23805,0.78073 0.23805,0.99214 0,0.2114 -1.69664,2.13754 -3.77031,4.28033 -2.07367,2.14277 -4.95836,5.1267 -6.41042,6.63096 -1.45207,1.50426 -2.68071,2.77561 -2.73032,2.82523 l -1.18848,0.50607 c -0.0676,-0.0676 -2.01277,-0.58716 -4.32262,-1.1546 -2.30984,-0.56744 -6.26323,-1.54005 -8.78529,-2.16136 l -4.58558,-1.12965 -2.15518,2.23907 c -1.18535,1.23148 -3.76528,3.91149 -5.73317,5.95558 -1.9679,2.04408 -3.84811,4.01865 -4.17824,4.38793 l -0.60025,0.67141 0.49833,1.69749 c 0.27408,0.93362 0.88826,3.0667 1.36484,4.74019 1.22376,4.29717 3.21213,10.96618 3.29589,11.05444 0.0387,0.0408 1.12845,0.33005 2.42156,0.64271 8.85361,2.14073 15.50618,3.86562 15.71523,4.07467 0.20185,0.20186 2.65368,8.38609 4.11299,13.72923 0.19872,0.7276 0.59634,2.12866 0.8836,3.11347 l 0.5223,1.79055 -3.48838,3.61128 c -1.9186,1.9862 -4.97665,5.14678 -6.79566,7.02352 l -3.30729,3.41224 -6.48229,-1.61484 c -3.56526,-0.88816 -7.49433,-1.8549 -8.73125,-2.1483 -1.23693,-0.2934 -2.41843,-0.59045 -2.62555,-0.66009 l -1.11081,-0.86702 -0.65865,-2.2002 c -0.36226,-1.21011 -0.83063,-2.79551 -1.04083,-3.52311 -1.07956,-3.73695 -1.78635,-6.21741 -2.11094,-7.40834 -0.19832,-0.7276 -0.57572,-2.0208 -0.83867,-2.87378 l -0.47809,-1.55086 -8.86355,-2.2216 -8.86354,-2.2216 -2.11666,2.19008 c -8.658471,8.9588 -10.451048,10.88788 -10.451048,11.24684 0,0.22407 0.314112,1.49035 0.698026,2.81395 0.383914,1.32361 1.200897,4.13296 1.815516,6.24301 2.706244,9.29081 2.565604,8.70008 2.195894,9.22339 -0.1891,0.26765 -3.191166,3.42157 -6.671266,7.00871 -4.045095,4.16951 -6.515385,6.52207 -6.848475,6.52207 -0.28655,0 -0.95154,-0.11674 -1.47775,-0.25943 -0.5262,-0.14268 -4.4039,-1.1039 -8.61711,-2.13604 -4.21321,-1.03214 -7.86205,-1.98455 -8.10854,-2.11647 -0.24822,-0.13284 -0.67955,-1.03903 -0.96679,-2.03114 -0.28525,-0.98521 -1.05562,-3.63676 -1.71194,-5.89234 -0.65632,-2.25557 -1.59376,-5.48508 -2.0832,-7.17669 l -0.8899,-3.07565 z"
       id="path2"
       sodipodi:nodetypes="csscsssscsscssssssssssscsscssssssssssssssccssssscsscssssscsssccscssssscsscsscssssssssccsscssscssssssscsscssccsssscccssssssssssssscc" /></g></svg>
